<?xml version="1.0" standalone="no"?>
<!DOCTYPE svg PUBLIC "-//W3C//DTD SVG 1.1//EN" "http://www.w3.org/Graphics/SVG/1.1/DTD/svg11.dtd" >
<svg xmlns="http://www.w3.org/2000/svg">
<metadata>
This is a custom SVG webfont generated by Font Squirrel.
Foundry     : Tiffany Text The Hoefler Type Foundry, Inc
</metadata>
<defs>
<font id="webfontYd5lzfxa" horiz-adv-x="773" >
<font-face units-per-em="1000" ascent="800" descent="-200" />
<missing-glyph horiz-adv-x="203" />
<glyph unicode="&#xd;" horiz-adv-x="287" d="M250 -2q-22 1 -48.5 1.5t-51.5 0.5t-55 -0.5t-52 -1.5q-2 0 -2 8t2 8q21 3 34 7t20 15t9.5 32t2.5 60v169q0 39 -3 60t-11 31.5t-22 14t-35 6.5q-2 0 -2 8t2 8h143v-297q0 -38 3 -59.5t10.5 -32.5t21 -15t34.5 -7q2 0 2 -8t-2 -8z" />
<glyph horiz-adv-x="340" d="M255 594q0 -38 -23.5 -62.5t-61.5 -24.5t-61.5 24.5t-23.5 62.5t23.5 62.5t61.5 24.5t61.5 -24.5t23.5 -62.5zM226 593q0 26 -15.5 44.5t-41.5 18.5t-40.5 -17.5t-14.5 -43.5t15.5 -44.5t41.5 -18.5t40.5 17.5t14.5 43.5z" />
<glyph unicode=" "  horiz-adv-x="203" />
<glyph unicode="&#x09;" horiz-adv-x="203" />
<glyph unicode="&#xa0;" horiz-adv-x="203" />
<glyph unicode="!" horiz-adv-x="214" d="M151 584q0 -30 -5 -73l-12 -97q-6 -54 -11.5 -118t-6.5 -136q0 -2 -8 -2t-8 2q-1 72 -6.5 136t-11.5 118l-11 97q-5 43 -5 73q0 38 10 52.5t32 14.5t32.5 -14.5t10.5 -52.5zM159 32q0 -19 -13.5 -34.5t-38.5 -15.5q-26 0 -39 15.5t-13 34.5q0 21 13 37t39 16 q25 0 38.5 -16t13.5 -37z" />
<glyph unicode="&#x22;" horiz-adv-x="284" d="M84 417q-1 -3 -8 -3t-8 3q-6 43 -10 75l-7 57q-3 24 -4.5 41t-1.5 29q0 15 10.5 23.5t20.5 8.5t20.5 -8.5t10.5 -23.5q0 -12 -1.5 -29t-4.5 -41l-7 -57q-4 -32 -10 -75zM216 417q-1 -3 -8 -3t-8 3q-6 43 -10 75l-7 57q-3 24 -4.5 41t-1.5 29q0 15 10.5 23.5t20.5 8.5 t20.5 -8.5t10.5 -23.5q0 -12 -1.5 -29t-4.5 -41l-7 -57q-4 -32 -10 -75z" />
<glyph unicode="#" horiz-adv-x="615" d="M547 227q1 0 1.5 -3.5t0.5 -7.5t-0.5 -7.5t-1.5 -3.5h-153l-57 -233q0 -1 -1 -0.5t-3 0.5q-4 1 -8.5 2.5t-8 3t-3.5 2.5l54 225h-183l-57 -233q0 -1 -1 -0.5t-3 0.5q-4 1 -8.5 2.5t-8 3t-3.5 2.5l54 225h-151q-1 0 -1 3v8v7q0 4 1 4h156l47 192h-150q-1 0 -1 3v8v7 q0 4 1 4h155l57 233h1h3q4 -1 8.5 -2.5t8 -3t3.5 -2.5l-54 -225h183l57 233h1h3q4 -1 8.5 -2.5t8 -3t3.5 -2.5l-55 -225h150q1 0 1.5 -3.5t0.5 -7.5t-0.5 -7.5t-1.5 -3.5h-155l-46 -192h148zM372 227l47 192h-184l-46 -192h183z" />
<glyph unicode="$" horiz-adv-x="484" d="M268 650q38 -2 69.5 -10t65.5 -20l2 -134q0 -2 -6 -2.5t-6 0.5q-22 56 -52.5 93t-73.5 48l-9 -259l6 -4q4 -3 8 -5l62 -37q31 -18 54.5 -39t38 -48.5t14.5 -67.5q0 -32 -14 -63.5t-39.5 -57t-62 -42t-81.5 -16.5l-3 -74q0 -2 -4 -3t-10 -1q-5 0 -9 1t-4 3l3 75 q-30 1 -55 6.5t-44.5 11.5t-32 12t-17.5 10q-2 2 -4 20t-3.5 42t-2.5 48t-2 36q0 2 8.5 2.5t9.5 -2.5q9 -33 21.5 -60t29.5 -47.5t39.5 -34t53.5 -18.5l10 280q-7 4 -13 8l-59 39q-27 19 -48 41t-33 48.5t-12 60.5q0 33 13.5 62t37.5 50.5t56.5 34.5t70.5 14l2 51q0 2 4 2.5 t9 0.5q6 0 10 -0.5t4 -2.5q0 -15 -1 -26q-1 -10 -1 -18v-8zM253 10q57 0 92 31t35 81q0 26 -9 47t-25.5 39t-39.5 34t-52 34v-12q0 -11 -1 -29.5t-1.5 -42.5t-1.5 -49q-2 -59 -5 -133h8zM238 628q-21 0 -41.5 -6t-36.5 -18t-26 -30t-10 -42q0 -53 31 -86.5t76 -62.5l9 245 h-2z" />
<glyph unicode="%" horiz-adv-x="749" d="M313 479q0 -34 -10.5 -66t-30 -56.5t-46.5 -39t-60 -14.5t-60 14.5t-46 38.5t-29.5 55t-10.5 65t10 65.5t29 56t46 39t61 14.5t61.5 -14t46.5 -38t29 -55t10 -65zM595 659q2 3 6 3q5 0 9.5 -1.5t7 -5t-0.5 -6.5l-460 -671q-2 -3 -7 -3q-4 0 -8.5 2t-7 5t-1.5 6zM729 162 q0 -34 -10.5 -66t-30 -56.5t-46.5 -39t-60 -14.5t-60 14.5t-46 38.5t-29.5 55t-10.5 65t10 65.5t29 56t46 39t61 14.5t61.5 -14t46.5 -38t29 -55t10 -65zM247 476q0 34 -4 62.5t-13.5 49t-25 32t-38.5 11.5q-46 0 -63.5 -42t-17.5 -110q0 -34 4 -62.5t13.5 -49t25 -32 t38.5 -11.5q46 0 63.5 42t17.5 110zM663 159q0 34 -4 62.5t-13.5 49t-25 32t-38.5 11.5q-46 0 -63.5 -42t-17.5 -110q0 -34 4 -62.5t13.5 -49t25 -32t38.5 -11.5q46 0 63.5 42t17.5 110z" />
<glyph unicode="&#x26;" horiz-adv-x="679" d="M690 -2q-7 0 -21 0.5t-30 1t-31 0.5h-26h-41q-4 8 -15 22l-24 30l-30 34l-31 32q-46 -60 -95 -96t-119 -36q-46 0 -81.5 15t-60.5 39.5t-38 55.5t-13 62q0 63 40.5 111t112.5 77q-32 29 -57 66.5t-25 82.5q0 32 12.5 60.5t34.5 50t53.5 34t68.5 12.5q38 0 66.5 -11 t48 -29t29.5 -41t10 -48q0 -53 -37.5 -95.5t-109.5 -72.5l89 -75q44 -39 91 -85l32 50q29 45 44.5 74.5t15.5 46.5q0 24 -41 27q-2 0 -2 8t2 8l45 -2q23 -1 39 -1q17 0 35.5 1t40.5 2q2 0 2 -8t-2 -8q-23 -2 -37 -7.5t-26 -17.5q-11 -11 -22 -28l-29 -43l-80 -119l19 -20 l15 -16l16 -16l18 -19q30 -30 48.5 -47t33.5 -26.5t29 -13.5t33 -6q2 0 2 -8t-2 -8zM367 506q0 25 -7.5 47.5t-21 39t-33.5 26t-45 9.5q-21 0 -39 -8.5t-31 -22.5t-20.5 -32.5t-7.5 -38.5q0 -26 7.5 -47.5t21 -39.5t31.5 -35t39 -34q58 24 82 61t24 75zM422 137l-52 49 l-57 52l-57 50l-53 44q-45 -23 -71 -59.5t-26 -79.5q0 -36 12.5 -65.5t33.5 -50.5t50 -32.5t62 -11.5q23 0 45.5 9t42.5 23.5t38 33t32 38.5z" />
<glyph unicode="'" horiz-adv-x="152" d="M84 417q-1 -3 -8 -3t-8 3q-6 43 -10 75l-7 57q-3 24 -4.5 41t-1.5 29q0 15 10.5 23.5t20.5 8.5t20.5 -8.5t10.5 -23.5q0 -12 -1.5 -29t-4.5 -41l-7 -57q-4 -32 -10 -75z" />
<glyph unicode="(" horiz-adv-x="372" d="M392 722h2q3 0 5 -4t2 -7q0 -1 -1 -2q-48 -30 -91 -83.5t-75.5 -121t-51.5 -144.5t-19 -153t19 -153t51.5 -144.5t75.5 -121t91 -83.5q1 -1 1 -2q0 -3 -2 -7t-5 -4h-2q-64 37 -119.5 92t-96 122.5t-63.5 144t-23 156.5t23 156.5t63.5 143.5t96 122.5t119.5 92.5z" />
<glyph unicode=")" horiz-adv-x="372" d="M-20 722q64 -37 119.5 -92.5t96 -122.5t63.5 -143.5t23 -156.5t-23 -156.5t-63.5 -144t-95.5 -122.5t-120 -92h-2q-3 0 -5 4t-2 7q0 1 1 2q48 30 91 83.5t75.5 121t51.5 144.5t19 153t-19 153t-51.5 144.5t-75.5 121t-91 83.5q-1 1 -1 2q0 3 2 7t5 4h2z" />
<glyph unicode="*" horiz-adv-x="365" d="M160 638q-1 6 6 9.5t16 3.5t16 -3.5t6 -9.5l-17 -134l108 81q5 4 11.5 -0.5t11.5 -12.5t5 -16q0 -6 -6 -9l-123 -51l123 -51q6 -3 6 -10q0 -8 -5 -17q-5 -7 -11.5 -11.5t-11.5 -0.5l-108 82l17 -135q1 -6 -6 -9.5t-16 -3.5t-16 3.5t-6 9.5l17 135l-109 -82 q-5 -4 -11.5 0.5t-10.5 11.5q-6 9 -6 17q0 7 6 10l125 51l-125 51q-6 3 -6 9q0 8 6 16q4 8 10.5 12.5t11.5 0.5l109 -81z" />
<glyph unicode="+" horiz-adv-x="480" d="M253 308v-196q0 -1 -4 -1h-9h-9q-4 0 -4 1v196h-193q-1 0 -1 4v9v9q0 4 1 4h193v197q0 1 4 1.5t9 0.5t9 -0.5t4 -1.5v-197h196q1 0 1.5 -4t0.5 -9t-0.5 -9t-1.5 -4h-196z" />
<glyph unicode="," horiz-adv-x="181" d="M71 91q21 0 37 -8.5t26.5 -22t15.5 -29.5t5 -31q0 -48 -32 -93t-80 -74h-1q-2 0 -6 5q-5 7 -2 9q38 29 54 54.5t16 54.5q0 17 -9 29t-30 17q-26 5 -33 19t-7 27q0 18 12 30.5t34 12.5z" />
<glyph unicode="-" horiz-adv-x="291" d="M266 275q1 0 1.5 -4t0.5 -9t-0.5 -9t-1.5 -4h-241q-1 0 -1 4v9v9q0 4 1 4h241z" />
<glyph unicode="." horiz-adv-x="194" d="M152 35q0 -20 -14.5 -36.5t-40.5 -16.5q-27 0 -41 16.5t-14 36.5q0 22 14 39t41 17q26 0 40.5 -17t14.5 -39z" />
<glyph unicode="/" horiz-adv-x="225" d="M-40 -297q0 -1 -1 -1t-3 1q-5 1 -10 2.5t-8.5 3t-3.5 2.5l273 1020l1 0.5t4 -0.5q4 -1 9 -2.5t8.5 -3t3.5 -2.5z" />
<glyph unicode="0" horiz-adv-x="616" d="M566 321q0 -67 -18 -127.5t-51 -106.5t-81 -73.5t-108 -27.5t-108 27.5t-81 73.5t-51 106.5t-18 127.5t18 127t51 105t81 71.5t108 26.5t108 -26.5t81 -71.5t51 -105t18 -127zM475 317q0 65 -10 121.5t-31 98t-52.5 65.5t-73.5 24t-73.5 -24t-52.5 -65.5t-31 -98 t-10 -121.5t10 -121t31 -97t52.5 -64.5t73.5 -23.5t73.5 23.5t52.5 64.5t31 97t10 121z" />
<glyph unicode="1" horiz-adv-x="407" d="M362 -2q-7 0 -25.5 0.5t-40.5 1t-43 0.5h-33h-33h-42l-43 -2h-35q-2 0 -2 8t2 8q38 2 60 5.5t33 14t14 30.5t3 56v378q0 38 -4.5 60t-18 32.5t-38.5 11.5q-9 1 -19 1q-21 0 -50 -2q-3 0 -3 6q0 10 4 11q41 5 96 14l101 16h2q3 0 3 -4q1 -4 1 -11v-513q0 -36 3.5 -56 t14.5 -30.5t33.5 -14t59.5 -5.5q2 0 2 -8t-2 -8z" />
<glyph unicode="2" horiz-adv-x="484" d="M332 61q27 0 43 6.5t25 18.5t14 27.5t12 33.5q0 1 3 1q4 0 7.5 -0.5t6 -2t2.5 -2.5q-1 -4 -3 -18l-6 -31l-6 -35q-3 -18 -6 -32l-5 -27h-396l-4 17l119 120l86 92.5t59.5 72t37 58t19 50.5t5.5 50q0 36 -11.5 61.5t-30 42t-42 24.5t-47.5 8q-40 0 -77 -22.5t-67 -70.5 q-1 -2 -6.5 1.5t-4.5 5.5q28 65 78.5 103t112.5 38q31 0 62 -10.5t55.5 -32t40 -53.5t15.5 -74q0 -47 -23 -90.5t-65 -91.5t-101 -105l-134 -133h232z" />
<glyph unicode="3" horiz-adv-x="465" d="M421 170q0 -36 -14 -69.5t-41.5 -59t-68 -40.5t-93.5 -15q-44 0 -90 20q-22 8 -43 22.5t-31.5 24t-10.5 11.5q0 1 3 6q5 6 7 4q41 -31 73 -42t69 -11q35 0 64 12t50 33t32.5 48.5t11.5 57.5q0 33 -11 60t-29.5 45.5t-44.5 29t-56 10.5q-22 0 -43 -5t-37 -10q-1 0 -2.5 3 t-2.5 6.5t-1.5 7t0.5 3.5l42 12q16 5 24 8q69 23 99 60.5t30 92.5q0 51 -33 82.5t-87 31.5q-42 0 -79 -26t-65 -70q-1 -2 -7 2t-5 6q26 60 76 95t116 35q41 0 72 -13t52 -34.5t31.5 -48.5t10.5 -55q0 -51 -38 -92.5t-122 -69.5q47 -1 83 -15.5t60 -38t36.5 -53.5t12.5 -61z " />
<glyph unicode="4" horiz-adv-x="544" d="M369 0h-69v215h-279l-9 19l301 412h56v-378h69q29 0 40.5 18.5t21.5 52.5q1 2 10 1.5t9 -1.5q-4 -18 -9 -45t-8 -47l-5 -32h-128v-215zM300 268v312h-2l-228 -312h230z" />
<glyph unicode="5" horiz-adv-x="460" d="M424 190q0 -46 -17 -83.5t-46 -64.5t-68 -41.5t-83 -14.5q-30 0 -57.5 8t-51.5 20.5t-43 27.5q-9 8 -19.5 19.5t-10.5 13.5t4 6q6 5 8 3q29 -26 65 -46t77 -20q36 0 66 12.5t51.5 35t33 54.5t11.5 71q0 35 -12 62.5t-34 47t-51 29.5t-64 10q-23 0 -45 -6.5t-42 -17.5 l-25 15l27 305h254q13 0 21 2t13.5 8t9.5 16t9 26q1 1 5 1h5q9 -1 9 -2q-4 -19 -7.5 -41.5t-7.5 -42.5l-5 -27h-280l-19 -221q19 9 45.5 16t66.5 7q47 0 85 -14.5t65 -40t42 -59.5t15 -74z" />
<glyph unicode="6" horiz-adv-x="555" d="M465 654q3 0 4.5 -6t1.5 -8q0 -5 -6 -5q-78 -9 -139 -47.5t-103 -94t-64 -121.5t-22 -131q0 -49 10.5 -91t31 -73t49 -48.5t64.5 -17.5q34 0 59.5 14.5t42 39t25 57t8.5 68.5q0 32 -9.5 61t-27.5 51.5t-44 36t-58 13.5q-20 0 -39.5 -4.5t-33.5 -11.5q-2 -1 -3 7t1 9 q30 13 57 20.5t57 7.5q44 0 78 -15.5t58 -42t36.5 -60.5t12.5 -71q0 -42 -17.5 -79.5t-47.5 -65.5t-70.5 -44.5t-86.5 -16.5q-50 0 -93 20.5t-75 56t-50 83.5t-18 104q0 75 33.5 146t89.5 127.5t131 92t157 39.5z" />
<glyph unicode="7" horiz-adv-x="476" d="M453 636q5 0 5 -7q0 -3 -1 -5l-305 -638q-1 -3 -8 -4h-4q-6 0 -12 2q-9 1 -14.5 4t-4.5 6l293 581h-250q-27 0 -43 -6.5t-25 -18.5t-14 -27.5t-12 -33.5q0 -1 -4 -1q-3 0 -6.5 1t-6 2t-2.5 2q1 5 5 27l9 49q5 30 12 67h388z" />
<glyph unicode="8" horiz-adv-x="523" d="M470 165q0 -32 -15 -64t-42.5 -57.5t-66 -41.5t-86.5 -16q-52 0 -90.5 14t-64.5 37.5t-39 53.5t-13 61t11.5 57t31 48t45.5 39.5t54 30.5q-24 14 -46 30.5t-38 36t-25.5 43t-9.5 53.5q0 33 14 63t39 52.5t60.5 36t77.5 13.5q41 0 74.5 -11.5t57 -31.5t36.5 -47t13 -57 q0 -29 -11 -53.5t-29.5 -44.5t-43.5 -36t-53 -28q30 -16 58.5 -33.5t51 -39t36 -48t13.5 -60.5zM292 356q48 25 68.5 62t20.5 76q0 29 -9 54t-25.5 43.5t-39.5 29t-52 10.5q-57 0 -88 -32t-31 -80q0 -30 13 -53.5t35 -43t50 -35.5t58 -31zM410 133q0 35 -17.5 61t-46 47 t-62.5 39l-70 36q-47 -28 -68.5 -66t-21.5 -83q0 -34 12.5 -63t33.5 -49.5t47.5 -32t54.5 -11.5q26 0 50.5 8.5t44 24.5t31.5 38.5t12 50.5z" />
<glyph unicode="9" horiz-adv-x="557" d="M95 -18q-3 0 -4.5 6t-1.5 8q0 5 6 5q78 9 139 47.5t103 94t64 122t22 130.5q0 49 -10 91t-30 73t-48.5 48.5t-66.5 17.5q-33 0 -58 -14t-42 -38t-26 -55.5t-9 -66.5q0 -32 9.5 -60.5t27.5 -50t44 -34t58 -12.5q20 0 39.5 4.5t33.5 11.5q2 1 3 -7t-1 -9q-30 -13 -57 -20.5 t-57 -7.5q-43 0 -77.5 15t-58.5 40.5t-36.5 58.5t-12.5 70q0 42 17.5 79t47.5 64t70.5 42.5t86.5 15.5q53 0 96.5 -20.5t74.5 -56t48 -83.5t17 -104q0 -75 -33.5 -146t-89.5 -127.5t-130.5 -92t-157.5 -39.5z" />
<glyph unicode=":" horiz-adv-x="194" d="M152 35q0 -20 -14.5 -36.5t-40.5 -16.5q-27 0 -41 16.5t-14 36.5q0 22 14 39t41 17q26 0 40.5 -17t14.5 -39zM152 311q0 -20 -14.5 -36.5t-40.5 -16.5q-27 0 -41 16.5t-14 36.5q0 22 14 39t41 17q26 0 40.5 -17t14.5 -39z" />
<glyph unicode=";" horiz-adv-x="194" d="M152 311q0 -20 -14.5 -36.5t-40.5 -16.5q-27 0 -41 16.5t-14 36.5q0 22 14 39t41 17q26 0 40.5 -17t14.5 -39zM91 91q21 0 37 -8.5t26.5 -22t15.5 -29.5t5 -31q0 -48 -32 -93t-80 -74h-1q-2 0 -6 5q-5 7 -2 9q38 29 54 54.5t16 54.5q0 17 -9 29t-30 17q-26 5 -33 19 t-7 27q0 18 12 30.5t34 12.5z" />
<glyph unicode="&#x3c;" horiz-adv-x="480" d="M431 507h1l3 -3q2 -3 3 -7q3 -6 3 -9t-2 -4l-365 -163l365 -163q2 -1 2 -4t-3 -9q-1 -4 -3 -7t-3 -3h-1l-388 176v21z" />
<glyph unicode="=" horiz-adv-x="480" d="M448 400q1 0 1.5 -4t0.5 -9t-0.5 -9t-1.5 -4h-416q-1 0 -1 4v9v9q0 4 1 4h416zM448 268q1 0 1.5 -4t0.5 -9t-0.5 -9t-1.5 -4h-416q-1 0 -1 4v9v9q0 4 1 4h416z" />
<glyph unicode="&#x3e;" horiz-adv-x="480" d="M439 311l-388 -176q-1 -1 -3 2.5t-4 7.5q-2 6 -2 10q0 2 1 3l365 163l-365 163q-1 1 -1 3q0 4 2 10q2 4 4 7.5t3 2.5l388 -175v-21z" />
<glyph unicode="?" horiz-adv-x="361" d="M330 517q0 -23 -9 -44t-22 -39.5t-27 -33.5t-25 -25q-19 -20 -36 -40.5t-30 -43t-20.5 -49t-7.5 -58.5v-11q0 -6 1 -12q0 -5 -8 -5.5t-10 5.5l-4 24q-1 10 -1 24q0 53 19.5 91.5t43 71.5t43 63.5t19.5 66.5q0 26 -9 45t-23 32t-32.5 19t-37.5 6q-31 0 -61.5 -16.5 t-50.5 -47.5q-2 -2 -8 2q-4 2 -4 4q0 1 1 2q22 42 61 73.5t94 31.5q31 0 57 -10t45.5 -28t30.5 -43t11 -55zM202 32q0 -19 -13.5 -34.5t-38.5 -15.5q-26 0 -39 15.5t-13 34.5q0 21 13 37t39 16q25 0 38.5 -16t13.5 -37z" />
<glyph unicode="@" horiz-adv-x="952" d="M550 140q-20 -41 -48.5 -58t-64.5 -17q-20 0 -38.5 6t-32.5 18t-22 28.5t-8 37.5q0 60 54.5 95t149.5 40v20q0 17 -4.5 33.5t-15 29.5t-27.5 20.5t-41 7.5q-26 0 -50.5 -12t-44.5 -34q-3 -3 -7 1.5t-2 8.5q17 32 50.5 53.5t77.5 21.5q26 0 48.5 -8t39 -24t26.5 -40 q8 -21 8 -48v-6l-4 -112v-7q0 -46 24 -76q26 -32 80 -32q32 0 58.5 15t46.5 43t31 68t11 91q0 60 -24 120t-70.5 108t-114.5 78t-155 30q-80 0 -147.5 -30.5t-116 -83t-76 -122t-27.5 -148.5t25.5 -148.5t73 -120.5t115 -80.5t151.5 -29.5q71 0 127.5 20.5t97.5 43.5 q4 2 7.5 -6t1.5 -10q-44 -26 -100.5 -47.5t-133.5 -21.5q-90 0 -165 29.5t-129 82t-83.5 126.5t-29.5 162q0 81 30.5 154t85.5 128.5t131 88.5t167 33q97 0 170.5 -31.5t123.5 -82t75.5 -114t25.5 -127.5q0 -54 -15.5 -98t-42.5 -76t-64 -49.5t-81 -17.5q-37 0 -73.5 17.5 t-54.5 58.5zM413 227q-11 -11 -15.5 -25t-4.5 -30q0 -32 18 -52.5t48 -20.5q19 0 33.5 7t24.5 18.5t15 24.5t5 25l3 95q-56 -4 -84.5 -16t-42.5 -26z" />
<glyph unicode="A" horiz-adv-x="600" d="M593 -2q-7 0 -21 0.5t-30 1t-32 0.5h-27q-23 0 -57 -0.5t-63 -1.5q-2 0 -2 8t2 8q27 3 41.5 8.5t19.5 19.5q2 6 2 15t-3 22q-5 24 -18 63l-38 116h-203q-27 -90 -40 -138t-13 -71q0 -22 11.5 -27.5t33.5 -7.5q2 0 2 -8t-2 -8q-15 1 -38 1.5t-46 0.5h-15q-6 0 -14 -0.5 t-18 -1t-24 -0.5q-2 0 -2 8t2 8q16 2 26.5 4.5t19.5 11.5q8 8 14.5 20t14 31.5t16.5 47.5l21 67l121 381q5 15 8 31l6 33q0 3 10.5 5t23.5 2.5t23 0.5q11 0 11 -1l156 -472q19 -57 32.5 -88.5t26 -47t27 -20t35.5 -6.5q2 0 2 -8t-2 -8zM264 578q0 1 -2 1q-1 0 -1 -1 l-88 -289h184z" />
<glyph unicode="B" horiz-adv-x="566" d="M532 176q0 -43 -16.5 -77t-45.5 -57.5t-67.5 -36t-82.5 -12.5q-14 0 -39 1t-50 2.5t-45 2.5t-23 1h-23h-32l-34 -2h-26q-2 0 -2 8t2 8q27 2 43 5t24 13t10.5 30t2.5 56v400q0 36 -2.5 56t-10.5 30t-24 13t-43 5q-2 0 -2 8t2 8q29 -1 62.5 -1.5t56.5 -0.5q15 0 39 2t59 2 q94 0 149 -34t55 -106q0 -52 -32.5 -92t-98.5 -59v-2q47 -1 83.5 -16.5t61 -39.5t37 -54t12.5 -61zM392 467q0 69 -39.5 110t-110.5 41q-11 0 -20.5 -1t-14.5 -1v-209q0 -17 2.5 -30t7.5 -18q3 -3 9.5 -5t14.5 -3.5t16 -2t14 -0.5q51 0 85 34q16 15 26 36.5t10 48.5z M449 161q0 37 -12.5 68t-33.5 53t-48.5 34.5t-57.5 12.5q-27 0 -51 -5t-39 -12v-194q0 -36 3.5 -50.5t11.5 -22.5t28 -17.5t55 -9.5q28 0 54 7.5t46 24.5t32 44t12 67z" />
<glyph unicode="C" horiz-adv-x="635" d="M596 162q-1 -10 -2.5 -30.5t-4 -41t-5.5 -37t-6 -18.5q-73 -52 -190 -52q-78 0 -140.5 27t-106 72.5t-66.5 106.5t-23 129q0 64 22 124t64.5 107t104 75.5t140.5 28.5q29 0 54 -4t45 -9l36 -10q15 -4 25 -4q12 0 20 16q1 2 6.5 1.5t5.5 -2.5l5 -164q0 -2 -5 -3t-7 3 q-32 76 -76.5 114.5t-110.5 38.5q-55 0 -99 -23t-74.5 -64t-47 -98t-16.5 -125q0 -67 18.5 -124t52 -99t80.5 -66t104 -24q37 0 65 11t52 30q16 13 33 41t31 76q1 2 8.5 0.5t7.5 -3.5z" />
<glyph unicode="D" horiz-adv-x="711" d="M664 327q0 -70 -24.5 -130t-71 -104t-113.5 -69.5t-152 -25.5q-7 0 -24 0.5t-37 0.5q-19 0 -38 0.5t-31 0.5q-25 0 -60.5 -0.5t-64.5 -1.5q-2 0 -2 8t2 8q27 2 43 5t24 13t10.5 30t2.5 56v400q0 36 -2.5 56t-10.5 30t-24 13t-43 5q-2 0 -2 8t2 8q29 -1 64.5 -1.5 t60.5 -0.5q12 0 32.5 1t42.5 2.5t42.5 2.5t32.5 1q82 0 145.5 -25t107 -68.5t66 -100.5t22.5 -122zM571 335q0 66 -19.5 118.5t-54.5 89t-82 56t-103 19.5q-26 0 -55.5 -3t-49.5 -8v-483q0 -42 5.5 -60t10.5 -23q4 -4 14 -7t23 -5.5t28 -3.5t29 -1q67 0 115 23.5t79 64.5 t45.5 98.5t14.5 124.5z" />
<glyph unicode="E" horiz-adv-x="537" d="M501 160q-1 -12 -3.5 -32t-5.5 -41t-5.5 -41t-4.5 -33q-2 -11 -6 -14q-2 -2 -12 -2h-7q-35 2 -79 2.5t-95 0.5h-16h-42h-65l-66 -2h-46q-2 0 -2 8t2 8q27 2 43 5t24 13t10.5 30t2.5 56v400q0 36 -2.5 56t-10.5 30t-24 13t-43 5q-2 0 -2 8t2 8q29 -1 63 -1.5t57 -0.5h134 q22 0 55.5 1t81.5 3q7 0 7 -7q1 -16 2 -36t1.5 -38.5t1 -33t0.5 -19.5q0 -2 -6 -2.5t-6 0.5q-4 24 -11 43.5t-22 32.5t-41 20t-67 7h-78q-9 0 -11 -0.5t-2 -1.5v-269l40 1q39 1 66 2t44.5 2.5t27.5 4.5t16 9q8 8 11 23.5t7 38.5q0 2 7 2t7 -2q0 -4 -0.5 -15t-1 -24.5 t-0.5 -27.5v-24v-23q0 -13 0.5 -26.5t1.5 -25.5t2 -20q1 -3 -7.5 -3.5t-8.5 1.5q-4 21 -6.5 35.5t-12.5 24.5q-12 12 -46.5 17t-106.5 7l-40 1v-163q0 -28 0.5 -45.5t3 -28.5t6 -17.5t9.5 -12.5q20 -20 96 -20h16q38 0 61.5 7t39.5 23t25.5 41.5t18.5 61.5q1 3 9.5 2.5 t8.5 -2.5z" />
<glyph unicode="F" horiz-adv-x="497" d="M451 506q0 -2 -6 -2.5t-6 0.5q-4 24 -11 43.5t-22 32.5t-41 20t-67 7h-78q-9 0 -11 -0.5t-2 -1.5v-275h11q5 0 12.5 0.5t16.5 0.5q38 1 65 2t45 3t28.5 5t16.5 9q7 7 10 22.5t7 38.5q0 2 7 2t7 -2q0 -4 -0.5 -15t-1 -24.5t-0.5 -27.5v-24v-23q0 -13 0.5 -26.5t1.5 -25.5 t2 -20q1 -3 -7.5 -3.5t-8.5 1.5q-3 20 -6 34.5t-12 23.5q-7 7 -18 11.5t-28.5 7.5t-43.5 4.5t-64 2.5l-40 1v-190q0 -36 2.5 -56.5t11.5 -30.5t27.5 -12.5t49.5 -4.5q2 0 2 -8t-2 -8q-7 0 -23 0.5t-34.5 1t-37.5 0.5h-30q-25 0 -60.5 -0.5t-64.5 -1.5q-2 0 -2 8t2 8 q27 2 43 5t24 13t10.5 30t2.5 56v400q0 36 -2.5 56t-10.5 30t-24 13t-43 5q-2 0 -2 8t2 8q29 -1 63 -1.5t57 -0.5h134q22 0 55.5 1t81.5 3q7 0 7 -7q1 -16 2 -36t1.5 -38.5t1 -33t0.5 -19.5z" />
<glyph unicode="G" horiz-adv-x="664" d="M653 238q-27 -2 -43 -5t-24.5 -13t-11 -30t-2.5 -56v-125q0 -5 -7 -7q-14 -4 -59.5 -10t-107.5 -6q-78 0 -142 26.5t-109.5 71.5t-70 105.5t-24.5 128.5q0 64 22 124t64.5 107t104 75.5t140.5 28.5q29 0 54 -4t45 -9l36 -10q15 -4 25 -4q12 0 20 16q1 2 6.5 1.5t5.5 -2.5 l5 -164q0 -2 -5 -3t-7 3q-32 76 -76.5 114.5t-110.5 38.5q-55 0 -99 -23t-74.5 -64t-47 -98t-16.5 -125q0 -67 19.5 -123.5t54.5 -98t83 -65t105 -23.5q32 0 54 6t27 11t8 35t3 78q0 34 -3 52.5t-12.5 28t-26 12.5t-43.5 5q-2 0 -2 8t2 8q29 -1 64.5 -1.5t60.5 -0.5h29 q17 0 33.5 0.5t31 1t21.5 0.5q2 0 2 -8t-2 -8z" />
<glyph unicode="H" horiz-adv-x="748" d="M701 -2q-7 0 -21.5 0.5t-31 1t-33.5 0.5h-29q-25 0 -60.5 -0.5t-64.5 -1.5q-2 0 -2 8t2 8q27 2 43 5t24 13t10.5 30t2.5 56v194h-334v-194q0 -36 2.5 -56t11 -30t24.5 -13t43 -5q2 0 2 -8t-2 -8q-7 0 -21.5 0.5t-31 1t-33.5 0.5h-29q-25 0 -60.5 -0.5t-64.5 -1.5 q-2 0 -2 8t2 8q27 2 43 5t24 13t10.5 30t2.5 56v400q0 36 -2.5 56t-10.5 30t-24 13t-43 5q-2 0 -2 8t2 8q29 -1 64.5 -1.5t60.5 -0.5h29q17 0 33.5 0.5t31 1t21.5 0.5q2 0 2 -8t-2 -8q-27 -2 -43 -5t-24.5 -13t-11 -30t-2.5 -56v-180h334v180q0 36 -2.5 56t-10.5 30t-24 13 t-43 5q-2 0 -2 8t2 8q29 -1 64.5 -1.5t60.5 -0.5h29q17 0 33.5 0.5t31 1t21.5 0.5q2 0 2 -8t-2 -8q-27 -2 -43 -5t-24.5 -13t-11 -30t-2.5 -56v-400q0 -36 2.5 -56t11 -30t24.5 -13t43 -5q2 0 2 -8t-2 -8z" />
<glyph unicode="I" horiz-adv-x="345" d="M303 -2q-7 0 -23 0.5t-34.5 1t-37.5 0.5h-30h-30h-36l-36 -2h-33q-2 0 -2 8t2 8q29 2 47 3.5t27.5 11t12.5 30t3 59.5v400q0 39 -3 59.5t-12.5 30t-27.5 11.5t-47 3q-2 0 -2 8t2 8h33l36 -2h36h30h30q19 0 37.5 0.5t34.5 1t23 0.5q2 0 2 -8t-2 -8q-29 -3 -47 -5.5 t-27.5 -11.5t-13 -29t-3.5 -58v-400q0 -38 3.5 -58t13 -29t27.5 -11.5t47 -5.5q2 0 2 -8t-2 -8z" />
<glyph unicode="J" horiz-adv-x="320" d="M202 60q0 -89 -58 -149q-23 -23 -54.5 -40.5t-71.5 -28.5h-1l-3 1q-2 2 -3 5q-1 2 -1 4q0 4 4 5q30 12 51 27.5t34 40t18.5 60.5t5.5 88v445q0 39 -3 59.5t-12.5 30t-27.5 11.5t-47 3q-2 0 -2 8t2 8h33l36 -2h36h30h30q19 0 37.5 0.5t34.5 1t23 0.5q2 0 2 -8t-2 -8 q-29 -3 -47 -5.5t-27.5 -11.5t-13 -29t-3.5 -58v-458z" />
<glyph unicode="K" horiz-adv-x="651" d="M288 -2q-7 0 -21.5 0.5t-31 1t-33.5 0.5h-29q-25 0 -60.5 -0.5t-64.5 -1.5q-2 0 -2 8t2 8q27 2 43 5t24 13t10.5 30t2.5 56v400q0 36 -2.5 56t-10.5 30t-24 13t-43 5q-2 0 -2 8t2 8q29 -1 64.5 -1.5t60.5 -0.5h29q17 0 33.5 0.5t31 1t21.5 0.5q2 0 2 -8t-2 -8 q-27 -2 -43 -5t-24.5 -13t-11 -30t-2.5 -56v-400q0 -36 2.5 -56t11 -30t24.5 -13t43 -5q2 0 2 -8t-2 -8zM674 -3q-6 0 -23.5 0.5t-38.5 0.5l-42 2h-35q-8 0 -13 4t-12 11q-9 9 -27 29l-41 45l-51 56l-53 61l-52 58l-44 52q-2 3 -2 10q0 4 2 6l22 22l33 35l48 50l65 68l42 45 l24 25q9 9 11.5 14t2.5 9q0 8 -10.5 13t-34.5 9q-2 0 -2 8t2 8q26 -1 50 -1.5t45 -0.5q24 0 44 0.5t34 1.5q2 0 2 -8q0 -7 -2 -8q-34 -7 -49.5 -16t-32.5 -21q-6 -4 -20 -17l-33 -32l-41 -42l-46 -46l-45 -46l-41 -41l62 -71l71 -82l69 -76l57 -60q30 -31 57.5 -45t47.5 -14 q4 0 4 -11q0 -5 -4 -5z" />
<glyph unicode="L" horiz-adv-x="521" d="M501 160q-1 -12 -4 -32t-5 -42l-6 -41q-2 -20 -4 -32q-2 -13 -14 -15t-30 -2q-20 0 -62 2t-93 2h-16h-42h-65l-66 -2h-46q-2 0 -2 8t2 8q27 2 43 5t24 13t10.5 30t2.5 56v390q0 39 -3 60.5t-11.5 32.5t-24 14.5t-41.5 6.5q-2 0 -2 8t2 8h30l34 -2h31h25h33q20 0 39 0.5 t35 1t23 0.5q2 0 2 -8t-2 -8q-29 -3 -47 -7t-27.5 -15t-13 -32.5t-3.5 -59.5v-357q0 -28 0.5 -45.5t3 -28.5t6 -17.5t9.5 -12.5q20 -20 96 -20h16q37 0 60.5 6.5t39.5 22.5t26 41.5t19 62.5q1 3 9.5 2.5t8.5 -2.5z" />
<glyph unicode="M" horiz-adv-x="856" d="M807 -2q-7 0 -22.5 0.5t-33.5 1t-36 0.5h-28q-23 0 -57 -0.5t-63 -1.5q-2 0 -2 8t2 8q27 3 43 8.5t25 19.5t11 39q2 18 2 43v22l-7 349l-1 53q-1 18 -2 25h-6l-40 -106l-48 -127l-60 -157l-75 -192q-2 -4 -9 -4h-3q-10 1 -11 4q-18 54 -44 125l-56 149l-60 157l-57 151 h-1q-5 -118 -9 -225l-8 -207q-1 -29 -1 -49v-26q2 -24 14 -36q7 -7 21 -10.5t36 -5.5q2 0 2 -8t-2 -8q-15 1 -41 1.5t-49 0.5t-42 -0.5t-48 -1.5q-2 0 -2 8t2 8q19 2 32 5t22 12q8 8 13.5 21.5t9 36t6 55.5t3.5 79l10 285q1 16 1 28q0 20 -2 32q-3 22 -12 33t-25 14.5 t-42 6.5q-2 0 -2 8t2 8q23 -1 46 -1h44q21 0 38 0.5t26 0.5q8 0 14 -2.5t8 -9.5q3 -10 6 -22t7 -23l26 -65l30 -82l34 -90l34 -89l30 -80l22 -62h1l35 92l44 114l47 125l47 126q5 14 8 26l7 20q3 11 6 17t9 6q7 0 23.5 -1.5t37.5 -1.5h27q16 0 32 0.5t30 1t21 0.5q2 0 2 -8 t-2 -8q-26 -3 -42 -7t-25 -15t-12 -32q-2 -17 -2 -42v-18l11 -362q1 -42 4 -66.5t11.5 -38t23.5 -19t41 -8.5q2 0 2 -8t-2 -8z" />
<glyph unicode="N" horiz-adv-x="722" d="M608 -2q0 -2 -4.5 -3t-10.5 -1q-3 -1 -5.5 -1t-5.5 1q-5 0 -6 1l-415 572h-1l1 -397q0 -54 1 -84.5t8.5 -46t23.5 -20t46 -7.5q2 0 2 -8t-2 -8q-29 1 -50 2.5t-44 1.5t-47 -2l-39 -2q-2 0 -2 8t2 8q24 3 37.5 7t20.5 19.5t8.5 46.5t1.5 88v335q0 42 -3 63.5t-14 32.5 q-9 9 -24 12.5t-39 5.5q-2 0 -2 8t2 8q29 -1 53.5 -1.5t40.5 -0.5h15q11 0 22.5 0.5t21.5 0.5h13q9 -17 19 -33.5t24 -36.5l314 -433h1l-1 330q0 54 -1 84.5t-8.5 46t-23.5 20t-46 7.5q-2 0 -2 8t2 8q29 -1 50 -2.5t44 -1.5t47 2l39 2q2 0 2 -8t-2 -8q-24 -3 -37.5 -7 t-20.5 -19.5t-8.5 -46.5t-1.5 -88v-320v-29l2 -40v-41q1 -20 2 -33z" />
<glyph unicode="O" d="M721 320q0 -63 -22.5 -124t-65 -108t-105 -76t-143.5 -29t-143 28.5t-104 75.5t-64 107.5t-22 123.5t22 123.5t65 107.5t105 76t143 29t143 -28.5t104.5 -75.5t64.5 -107t22 -123zM628 318q0 67 -17.5 124t-49.5 99t-76.5 66t-99.5 24q-56 0 -100.5 -23t-75.5 -64.5 t-47.5 -98.5t-16.5 -125q0 -67 17.5 -124t49 -99t76 -66t99.5 -24q56 0 100.5 23t76 64.5t48 98.5t16.5 125z" />
<glyph unicode="P" horiz-adv-x="525" d="M503 471q0 -40 -18.5 -77t-51 -64t-77.5 -40q-30 -9 -64 -9q-16 0 -33 2q-4 1 -4 8q0 8 4 8q48 0 79.5 11.5t50.5 32t27 48.5t8 60q0 45 -18 79t-48.5 55t-69.5 28q-18 3 -37 3q-22 0 -44 -4v-494q0 -38 3.5 -58t13 -29t27.5 -11.5t47 -5.5q2 0 2 -8t-2 -8q-7 0 -23 0.5 t-34.5 1t-37.5 0.5h-30q-25 0 -60.5 -0.5t-64.5 -1.5q-2 0 -2 8t2 8q27 2 43 5t24 13t10.5 30t2.5 56v400q0 36 -3 55.5t-11.5 29.5t-24 13t-41.5 6q-2 0 -2 8t2 8h32l35 -2h34h28q10 0 24.5 0.5t30 1.5t30.5 1.5t26 0.5q47 0 86.5 -11t68 -33t44.5 -53t16 -72z" />
<glyph unicode="Q" d="M628 318q0 67 -17.5 124t-49.5 99t-76.5 66t-99.5 24q-56 0 -100.5 -23t-75.5 -64.5t-47.5 -98.5t-16.5 -125q0 -67 17.5 -123.5t49 -98t76 -65t99.5 -23.5q56 0 100.5 22.5t76 63.5t48 97.5t16.5 124.5zM480 -2q80 -54 159 -81t152 -27q34 0 65 12t48 26q2 2 6 -4 q2 -4 2 -6t-1 -3q-37 -26 -87 -46t-118 -20q-60 0 -135 25t-169 91l-32 21h-1q-77 3 -136 32t-99.5 75t-61 104.5t-20.5 120.5q0 63 22 123.5t65 107.5t105 76t143 29t143 -28.5t104.5 -75.5t64.5 -107t22 -123q0 -53 -15.5 -104.5t-46.5 -94.5t-75.5 -75.5t-103.5 -47.5z " />
<glyph unicode="R" horiz-adv-x="606" d="M631 -2q-7 0 -22.5 0.5t-33.5 1t-35 0.5h-27h-17q-5 3 -20 30l-36 60l-40 69q-20 35 -36 56q-15 20 -26.5 33.5t-23 22t-24.5 12t-31 3.5q-13 0 -27.5 -1t-24.5 -2v-165q0 -36 2.5 -56t11 -30t24.5 -13t43 -5q2 0 2 -8t-2 -8q-7 0 -21.5 0.5t-31 1t-33.5 0.5h-29 q-25 0 -60.5 -0.5t-64.5 -1.5q-2 0 -2 8t2 8q27 2 43 5t24 13t10.5 30t2.5 56v390q0 39 -3 60.5t-11.5 32.5t-24 14.5t-41.5 6.5q-2 0 -2 8q0 9 2 9q14 0 31.5 -1t35.5 -1.5t34 -1t28 -0.5q10 0 27 1t36 2.5t37 2.5t30 1q97 0 148.5 -43.5t51.5 -110.5q0 -61 -35 -110 t-88 -81q33 -29 62 -69.5t52 -78.5l40 -67q17 -27 31 -41q9 -10 22.5 -17t39.5 -10q2 0 2 -8t-2 -8zM424 451q0 33 -13 63.5t-35.5 53.5t-53.5 36.5t-66 13.5q-14 0 -26 -1t-23 -3v-296q19 -5 36.5 -7.5t43.5 -2.5q35 0 53.5 3.5t29.5 11.5q22 15 38 46.5t16 81.5z" />
<glyph unicode="S" horiz-adv-x="484" d="M441 165q0 -32 -14 -64.5t-40 -58.5t-63 -42t-83 -16q-35 0 -64.5 5t-52 12t-37 14.5t-19.5 11.5q-2 2 -4 20t-3.5 42t-2.5 48t-2 36q0 2 8.5 2.5t9.5 -2.5q11 -37 25 -67t35 -52t50 -34t69 -12q57 0 90.5 31.5t33.5 81.5q0 31 -12.5 54t-34.5 42.5t-52 38.5l-67 42 q-31 20 -58 39.5t-47 42t-31.5 49.5t-11.5 61t14 63.5t39 51.5t58.5 35t73.5 13q23 0 42 -4t34 -8.5t25 -8.5t15 -4q11 0 16 6t7 12q1 2 7.5 1.5t6.5 -2.5l4 -159q0 -2 -6 -2.5t-6 0.5q-26 65 -63.5 105.5t-91.5 40.5q-21 0 -41 -6.5t-35.5 -18.5t-25 -30t-9.5 -42 q0 -32 12.5 -56.5t33 -44t47.5 -36.5l56 -36l62 -38q29 -18 52 -39.5t37 -49.5t14 -68z" />
<glyph unicode="T" horiz-adv-x="592" d="M426 -2q-7 0 -23 0.5t-34.5 1t-37.5 0.5h-30h-30h-35l-38 -2h-32q-2 0 -2 8t2 8q32 2 50 4.5t27 12.5t11 30.5t2 56.5v498q-77 0 -118 -8.5t-62 -30.5q-15 -16 -24 -40t-17 -58q-1 -3 -9.5 -2.5t-8.5 2.5q2 12 4.5 34t5 46.5t5.5 48t4 39.5q17 -2 48.5 -3.5t68.5 -2.5 t75 -1.5t68 -0.5q54 0 95 0.5t72 1.5t53.5 2.5t38.5 3.5q2 -16 4 -39.5t5 -47.5l6 -47q2 -22 3 -34q0 -2 -8.5 -2.5t-9.5 2.5q-8 34 -17 57.5t-23 40.5q-21 22 -62 30.5t-118 8.5v-498q0 -36 2.5 -56.5t11.5 -30.5t27.5 -12.5t49.5 -4.5q2 0 2 -8t-2 -8z" />
<glyph unicode="U" horiz-adv-x="691" d="M653 622q-24 -3 -37.5 -7t-20.5 -19.5t-8.5 -46.5t-1.5 -88v-224q0 -58 -14 -105t-42.5 -80.5t-71.5 -51.5t-102 -18q-128 0 -186.5 60.5t-58.5 185.5v280q0 39 -3 60.5t-11.5 32.5t-24 14.5t-41.5 6.5q-2 0 -2 8t2 8q29 -1 63 -1.5t57 -0.5h28q18 0 36 0.5t33.5 1 t22.5 0.5q2 0 2 -8t-2 -8q-26 -3 -42 -7t-24.5 -15t-11.5 -32.5t-3 -59.5v-275q0 -48 8.5 -87t30 -66t58 -41.5t91.5 -14.5q45 0 78.5 16t55.5 44t32.5 67t10.5 85l-2 228q0 54 -1.5 84.5t-8.5 46t-23 20t-46 7.5q-2 0 -2 8t2 8q29 -1 50 -2.5t44 -1.5t47 2l39 2q2 0 2 -8 t-2 -8z" />
<glyph unicode="V" horiz-adv-x="610" d="M609 622q-19 -2 -30.5 -5.5t-22.5 -14.5q-15 -15 -30 -52l-41 -111l-126 -342q-4 -10 -9 -25l-10 -29q-6 -15 -10.5 -28.5t-7.5 -21.5h-29l-43 123l-38 110l-40 110l-46 124q-23 63 -36.5 95t-27.5 46q-11 11 -23 15t-32 6q-2 0 -2 8t2 8q8 0 23 -0.5t32 -1t34 -0.5h28 q23 0 53.5 0.5t59.5 1.5q2 0 2 -8t-2 -8q-32 -3 -46.5 -10.5t-14.5 -29.5q0 -14 6 -36.5t17 -55.5l133 -387l119 328q23 64 34.5 100t11.5 56t-13.5 26t-39.5 9q-2 0 -2 8t2 8q15 -1 39.5 -1.5t47.5 -0.5q16 0 32.5 0.5t45.5 1.5q2 0 2 -8t-2 -8z" />
<glyph unicode="W" horiz-adv-x="963" d="M956 622q-22 -2 -36 -7t-26 -23t-26 -54l-36 -99l-158 -446h-32l-151 407l-154 -407h-36l-175 467q-22 60 -35.5 91.5t-25 46.5t-24.5 18t-35 6q-2 0 -2 8t2 8q8 0 23 -0.5t32 -1t34 -0.5h28q23 0 51.5 0.5t57.5 1.5q2 0 2 -8t-2 -8q-27 -3 -42 -8t-20 -18q-1 -6 -1 -14 q0 -11 3 -25q6 -25 22 -67l149 -401l133 351q-22 63 -36.5 98.5t-27 53.5t-26.5 23t-36 7q-2 0 -2 8t2 8q8 0 23 -0.5t32 -1t34 -0.5h28q23 0 51 0.5t57 1.5q2 0 2 -8t-2 -8q-27 -3 -41.5 -8.5t-18.5 -19.5q-2 -6 -2 -14q0 -10 3 -24q6 -25 21 -66l143 -398l118 333 q25 71 37 109q11 35 11 53q0 22 -16 27q-13 5 -39 8q-2 0 -2 8t2 8q15 -1 39.5 -1.5t47.5 -0.5q16 0 32.5 0.5t45.5 1.5q2 0 2 -8t-2 -8z" />
<glyph unicode="X" horiz-adv-x="606" d="M613 -3q-7 0 -20.5 0.5t-28.5 0.5l-31 2h-27q-23 0 -54 -1l-59 -2q-2 0 -2 8t2 8q25 3 35.5 7t10.5 14q0 12 -15 38l-45 73l-85 144l-104 -151l-48 -71q-17 -24 -17 -35q0 -9 11.5 -12.5t35.5 -5.5q2 0 2.5 -8t-1.5 -8h-19l-24 2h-24h-21q-14 0 -36.5 -0.5t-51.5 -1.5 q-3 0 -3 11q0 5 2 5q19 2 34.5 4.5t31 12t32.5 27.5t40 51l143 205l-107 167l-49 73q-19 27 -35 41.5t-31.5 19.5t-37.5 8q-2 0 -2 8t2 8q8 0 21 -0.5t28 -0.5l31 -2h27q23 0 54 1l59 2q2 0 2 -8t-2 -8q-25 -3 -37 -6t-12 -12q0 -11 16 -37l47 -77l73 -123l90 130l44 65 q15 23 15 38q0 18 -51 21q-2 0 -2.5 8t1.5 8q8 0 19.5 -0.5t24.5 -1.5h25q13 -1 22 -1q14 0 37 1t52 2q2 0 2.5 -8t-1.5 -8q-20 -2 -35.5 -6t-30 -14t-30 -27.5t-36.5 -47.5l-130 -185l120 -187q29 -46 48.5 -73t35 -41.5t31.5 -19.5t38 -8q2 0 2 -8t-2 -8z" />
<glyph unicode="Y" horiz-adv-x="568" d="M582 622q-25 -2 -43 -12t-32 -25.5t-25 -35.5l-26 -44l-117 -212v-175q0 -36 2.5 -56.5t11.5 -30.5t27.5 -12.5t49.5 -4.5q2 0 2 -8t-2 -8q-7 0 -23 0.5t-34.5 1t-37.5 0.5h-30h-30h-35l-38 -2h-32q-2 0 -2 8t2 8q32 2 50 4.5t27 12.5t11 30.5t2 56.5v157l-150 257 q-16 27 -27.5 43.5t-22.5 26t-24.5 14t-33.5 6.5q-2 0 -2 8t2 8q8 0 20.5 -0.5t27.5 -1t30 -0.5h27q23 0 52 0.5t58 1.5q2 0 2 -8t-2 -8q-26 -2 -37 -7t-11 -16q0 -13 19 -46l134 -230l121 225q8 16 12.5 27t4.5 20q0 23 -48 27q-2 0 -2 8t2 8q15 -1 42 -1.5t50 -0.5 q16 0 32.5 0.5t45.5 1.5q2 0 2 -8t-2 -8z" />
<glyph unicode="Z" horiz-adv-x="560" d="M521 160q-1 -12 -4 -32t-5 -42l-6 -41q-2 -20 -4 -32q-2 -13 -14 -15t-30 -2q-10 0 -23 0.5t-27.5 1.5t-28.5 1.5t-26 0.5h-126h-47l-54 -2h-52q-25 -1 -43 -1q-2 0 -3 5q-1 3 -1 5t1 4l383 596h-183q-41 0 -68.5 -7t-44.5 -20t-26 -32.5t-13 -43.5q0 -1 -6 -0.5t-6 2.5 q0 5 2.5 25t5 42.5t5 40.5t2.5 19q0 2 2 4.5t15 2.5q26 0 61.5 -2t65.5 -2h130q38 0 77.5 0.5t76.5 1.5q5 0 5 -4q0 -3 -2 -7l-380 -600h228q38 0 61.5 7t39 23t25 41.5t18.5 61.5q0 2 9 2q10 0 10 -2z" />
<glyph unicode="[" horiz-adv-x="331" d="M331 -266q3 -1 3 -9t-3 -8q-21 3 -49 5l-59 4q-30 2 -59.5 3.5t-54.5 2.5q3 26 4.5 69t1.5 85v660q0 42 -1.5 85t-4.5 69q25 1 54.5 2.5t59.5 3.5l59 4q28 2 49 5q3 0 3 -9q0 -8 -3 -9l-157 -17v-929z" />
<glyph unicode="\" horiz-adv-x="225" d="M291 -289q0 -1 -3.5 -2.5t-8.5 -3t-9 -2.5q-3 -1 -4 -1t-1 1l-273 1020q0 1 3.5 2.5t8.5 3t10 2.5q2 0 3 0.5t1 -0.5z" />
<glyph unicode="]" horiz-adv-x="331" d="M157 680l-157 17q-3 0 -3 9t3 9q21 -3 50 -5l58 -4q30 -2 59.5 -3.5t54.5 -2.5q-3 -26 -4.5 -69t-1.5 -85v-660q0 -42 1.5 -85t4.5 -69q-25 -1 -54.5 -2.5t-59.5 -3.5l-58 -4q-29 -2 -50 -5q-3 0 -3 9q0 8 3 8l157 17v929z" />
<glyph unicode="^" horiz-adv-x="339" d="M202 636l107 -170h-17l-122 119l-123 -119h-17l107 170h65z" />
<glyph unicode="_" horiz-adv-x="500" d="M469 0h-438v26h438v-26z" />
<glyph unicode="`" horiz-adv-x="340" d="M45 651h105l115 -163h-17z" />
<glyph unicode="a" horiz-adv-x="461" d="M428 8q-21 -22 -60 -22q-30 0 -51 20.5t-27 46.5q-17 -31 -49 -49t-73 -18q-23 0 -44.5 8.5t-38 22.5t-26 34t-9.5 42q0 67 59 108.5t183 44.5l1 26v8q0 49 -25 79q-26 32 -80 32q-35 0 -66.5 -19.5t-53.5 -48.5q-2 -2 -6 2t-3 7q8 22 24 42t37.5 35.5t47.5 24.5t53 9 q66 0 107 -43q38 -40 38 -112v-7l-4 -189v-5q0 -32 11 -44q12 -13 28 -13q20 0 32 13.5t20 26.5q1 2 3 -3q2 -4 2 -6q0 -4 -9.5 -21.5t-20.5 -31.5zM292 227q-55 -2 -89.5 -15.5t-54.5 -33.5q-13 -13 -19 -29.5t-6 -33.5q0 -38 23 -61.5t58 -23.5q23 0 41.5 10t33.5 25 q3 3 6.5 8t3.5 8z" />
<glyph unicode="b" horiz-adv-x="532" d="M489 229q0 -54 -21 -98.5t-57.5 -76.5t-86 -50t-106.5 -18q-33 0 -71.5 5t-63.5 12v596q0 39 -3 60.5t-11.5 32.5t-24 14.5t-41.5 6.5q-2 0 -2 8t2 8h151v-351q23 21 60 39.5t75 18.5q48 0 85 -15.5t62.5 -43.5t39 -66t13.5 -82zM410 214q0 38 -10.5 70.5t-30 56 t-48.5 36.5t-65 13q-28 0 -55.5 -8.5t-45.5 -22.5v-324q21 -8 46 -13t50 -5q36 0 65 14.5t50 41t32.5 62.5t11.5 79z" />
<glyph unicode="c" horiz-adv-x="471" d="M409 64q-17 -24 -41 -42t-52.5 -28.5t-60.5 -10.5q-45 0 -83.5 17t-67 47.5t-45 72t-16.5 90.5q0 52 17 95t46.5 73.5t69.5 47.5t86 17q24 0 44.5 -4.5t36.5 -10.5t27 -10.5t16 -4.5q15 0 20 22q0 2 8 2t8 -2v-142q0 -2 -7 -2q-6 0 -7 2q-10 25 -25 48t-34 41t-41.5 28.5 t-46.5 10.5q-31 0 -56.5 -16t-43.5 -44t-28 -64.5t-10 -78.5t12 -77t33 -59.5t49.5 -38.5t61.5 -14q48 0 86 26.5t61 65.5q5 7 8 4q1 -2 1 -5q0 -4 -8.5 -23t-17.5 -33z" />
<glyph unicode="d" horiz-adv-x="545" d="M377 0v44q-23 -21 -60 -39.5t-75 -18.5q-48 0 -85 16t-62.5 43.5t-39 65.5t-13.5 82q0 54 19 98.5t53 76.5t81 50t102 18q23 0 44 -4t35 -9v178q0 37 -3 58t-13 32t-27.5 15t-47.5 7q-2 0 -2 8t2 8h163v-599q0 -39 3 -60.5t11.5 -32.5t24.5 -14.5t41 -6.5q2 0 2 -8t-2 -8 h-151zM376 394q-45 16 -86 16q-38 0 -69.5 -14.5t-53.5 -41t-34 -63.5t-12 -83q0 -38 10.5 -70.5t30 -56t48.5 -36.5t65 -13q28 0 55.5 8.5t45.5 22.5v331z" />
<glyph unicode="e" horiz-adv-x="475" d="M130 251q-1 -8 -1.5 -16.5t-0.5 -16.5q0 -39 12 -73t32.5 -59t48.5 -39.5t59 -14.5q48 0 85.5 25.5t61.5 63.5q2 3 6 1.5t3 -4.5q-8 -27 -25.5 -51.5t-41.5 -43t-52.5 -29.5t-59.5 -11q-46 0 -85.5 17t-68 47.5t-44.5 72t-16 90.5q0 45 16 87t44.5 74.5t69 52t88.5 19.5 q36 0 67 -11.5t55 -33t38.5 -51.5t17.5 -66v-30h-309zM351 276v24q0 30 -8 52t-21.5 36.5t-31 22t-36.5 7.5q-49 0 -80 -40t-41 -102h218z" />
<glyph unicode="f" horiz-adv-x="329" d="M430 667q0 -5 -5 -12t-11.5 -13.5t-14 -11t-13.5 -4.5q-8 0 -20 10l-27 24q-14 12 -30 21.5t-33 9.5q-54 0 -75.5 -52.5t-21.5 -162.5v-50h137q2 0 2.5 -5t0.5 -11q0 -5 -0.5 -10t-2.5 -5h-137v-267q0 -38 2.5 -59t12 -31.5t28 -14.5t50.5 -9q2 0 2 -8t-2 -8h-27l-33 2 h-35h-29q-25 0 -56.5 -0.5t-53.5 -1.5q-2 0 -2 8t2 8q22 3 35.5 7t21 15t10 32t2.5 60v267h-82q-2 0 -2 6t2 7q52 16 69 33q9 8 12 17.5t4 22.5q6 118 62.5 183t150.5 65q22 0 41.5 -6t34 -15t23 -20t8.5 -21z" />
<glyph unicode="g" horiz-adv-x="466" d="M340 399q18 34 42 53.5t51 19.5q21 0 36 -13.5t15 -30.5q0 -13 -9.5 -23t-24.5 -10q-7 0 -13 3l-13 8q-6 4 -13.5 7.5t-17.5 3.5q-11 0 -20 -8.5t-19 -22.5q20 -21 31.5 -47t11.5 -56q0 -34 -13 -63.5t-35 -52t-52 -37t-64 -17.5q-57 -15 -57 -48q0 -19 20 -30t50 -19 t65.5 -16t65.5 -22t50 -37t20 -60q0 -23 -16 -47.5t-44.5 -44t-68 -32t-85.5 -12.5q-109 0 -164.5 31.5t-55.5 86.5q0 40 37.5 71t97.5 45q-30 19 -30 51q0 25 16.5 46.5t51.5 37.5q-32 4 -59.5 18t-47.5 35t-31.5 48t-11.5 57q0 37 14.5 67.5t39.5 53t58.5 35t70.5 12.5 q35 0 66.5 -10.5t54.5 -30.5zM325 276q0 33 -8.5 59t-23.5 43.5t-34.5 27t-41.5 9.5q-51 0 -79.5 -37.5t-28.5 -96.5q0 -33 8.5 -59.5t23 -45.5t33.5 -29t41 -10q26 0 46 10.5t34.5 29.5t22 44t7.5 55zM388 -146q0 29 -23 45.5t-56 27t-70.5 18.5t-66.5 21 q-42 -12 -66.5 -36.5t-24.5 -53.5q0 -25 12 -44t33 -31.5t49 -19t60 -6.5q69 0 111 20t42 59z" />
<glyph unicode="h" horiz-adv-x="561" d="M536 -2q-22 1 -48.5 1.5t-51.5 0.5t-55 -0.5t-52 -1.5q-2 0 -2 8t2 8q21 3 34 7t20 15t9.5 32t2.5 60v138q0 54 -26.5 87t-77.5 33q-26 0 -49.5 -10t-40.5 -27t-27 -41t-10 -51v-129q0 -38 3 -59.5t10.5 -32.5t21 -15t34.5 -7q2 0 2 -8t-2 -8q-22 1 -48.5 1.5t-51.5 0.5 t-55 -0.5t-52 -1.5q-2 0 -2 8t2 8q21 3 34 7t20 15t9.5 32t2.5 60v471q0 39 -3 60.5t-12 32.5t-24.5 14.5t-41.5 6.5q-2 0 -2 8t2 8h151v-406h2q11 23 26.5 43.5t36 36.5t45.5 25t53 9q63 0 102.5 -43t39.5 -125v-141q0 -38 3 -59.5t10.5 -32.5t21 -15t34.5 -7q2 0 2 -8 t-2 -8z" />
<glyph unicode="i" horiz-adv-x="287" d="M85 593q0 23 13.5 39t37.5 16q25 0 38 -16.5t13 -36.5q0 -22 -13 -38t-38 -16q-24 0 -37.5 16t-13.5 36zM250 -2q-22 1 -48.5 1.5t-51.5 0.5t-55 -0.5t-52 -1.5q-2 0 -2 8t2 8q21 3 34 7t20 15t9.5 32t2.5 60v169q0 39 -3 60t-11 31.5t-22 14t-35 6.5q-2 0 -2 8t2 8h143 v-297q0 -38 3 -59.5t10.5 -32.5t21 -15t34.5 -7q2 0 2 -8t-2 -8z" />
<glyph unicode="j" horiz-adv-x="270" d="M181 595q0 -22 -13 -38t-38 -16q-24 0 -37.5 16t-13.5 36q0 23 13.5 39t37.5 16q25 0 38 -16.5t13 -36.5zM175 -66q0 -42 -7.5 -78.5t-26 -66.5t-49 -51.5t-75.5 -32.5h-1t-4 6q-1 3 -1 5t2 3q30 9 48 25t27 44.5t12 71t3 104.5v333q0 39 -3 60t-11 31.5t-22 14t-35 6.5 q-2 0 -2 8t2 8h143v-491z" />
<glyph unicode="k" horiz-adv-x="486" d="M375 0l-19 22l-26 30l-30 32l-30 29l-106 100v-85q0 -38 3 -59.5t10.5 -32.5t21 -15t34.5 -7q2 0 2 -8t-2 -8q-22 1 -48.5 1.5t-51.5 0.5t-55 -0.5t-52 -1.5q-2 0 -2 8t2 8q21 3 34 7t20 15t9.5 32t2.5 60v471q0 39 -3 60.5t-12 32.5t-24.5 14.5t-41.5 6.5q-2 0 -2 8t2 8 h153v-511l101 94q20 18 32 31t19.5 22t10 15.5t2.5 12.5q0 15 -24 18q-2 0 -2 8t2 8q22 -1 40.5 -1.5t32.5 -0.5t40.5 0.5t48.5 1.5q2 0 2 -8t-2 -8q-23 -3 -41 -9.5t-37.5 -19.5t-44.5 -34l-62 -57l-51 -47l59 -54l66 -63l46 -46q26 -26 49 -45t49 -22q2 0 2 -8t-2 -8z" />
<glyph unicode="l" horiz-adv-x="266" d="M238 -2q-22 1 -48.5 1.5t-51.5 0.5t-55 -0.5t-52 -1.5q-2 0 -2 8t2 8q21 3 34 7t20 15t9.5 32t2.5 60v473q0 39 -3 60t-11 31.5t-22 14t-35 6.5q-2 0 -2 8t2 8h143v-601q0 -38 3 -59.5t10.5 -32.5t21 -15t34.5 -7q2 0 2 -8t-2 -8z" />
<glyph unicode="m" horiz-adv-x="839" d="M814 -2q-22 1 -48.5 1.5t-51.5 0.5t-55 -0.5t-52 -1.5q-2 0 -2 8t2 8q21 3 34 7t20 15t9.5 32t2.5 60v138q0 54 -26.5 87t-77.5 33q-27 0 -47 -9t-34 -23q-13 -13 -19.5 -29t-6.5 -31v-166q0 -38 3 -59.5t10.5 -32.5t21 -15t34.5 -7q2 0 2 -8t-2 -8q-22 1 -48.5 1.5 t-51.5 0.5t-55 -0.5t-52 -1.5q-2 0 -2 8t2 8q21 3 34 7t20 15t9.5 32t2.5 60v138q0 54 -26.5 87t-77.5 33q-27 0 -47.5 -9.5t-34.5 -23.5q-13 -13 -19 -28.5t-6 -30.5v-166q1 -38 3.5 -59.5t10 -32.5t21 -15t34.5 -7q2 0 2 -8t-2 -8q-22 1 -48.5 1.5t-51.5 0.5t-55 -0.5 t-52 -1.5q-2 0 -2 8t2 8q21 3 34 7t20 15t9.5 32t2.5 60v169q0 38 -3 59t-11 31.5t-22 14.5t-35 7q-2 0 -2 8t2 8h140v-80h1q23 42 59.5 67t83.5 25t82 -24.5t50 -81.5h1q23 48 61 77t89 29q63 0 102.5 -43t39.5 -125v-141q0 -38 3 -59.5t10.5 -32.5t21 -15t34.5 -7 q2 0 2 -8t-2 -8z" />
<glyph unicode="n" horiz-adv-x="576" d="M557 -2q-22 1 -48.5 1.5t-51.5 0.5t-55 -0.5t-52 -1.5q-2 0 -2 8t2 8q21 3 34 7t20 15t9.5 32t2.5 60v138q0 54 -26.5 87t-77.5 33q-26 0 -49.5 -10t-40.5 -27t-27 -41t-10 -51v-129q0 -38 3 -59.5t10.5 -32.5t21 -15t34.5 -7q2 0 2 -8t-2 -8q-22 1 -48.5 1.5t-51.5 0.5 t-55 -0.5t-52 -1.5q-2 0 -2 8t2 8q21 3 34 7t20 15t9.5 32t2.5 60v169q0 39 -3 60t-11 31.5t-22 14t-35 6.5q-2 0 -2 8t2 8h141v-102h2q11 23 26.5 43.5t36 36.5t45.5 25t53 9q63 0 102.5 -43t39.5 -125v-141q0 -38 3 -59.5t10.5 -32.5t21 -15t34.5 -7q2 0 2 -8t-2 -8z" />
<glyph unicode="o" horiz-adv-x="532" d="M487 213q0 -48 -15.5 -89.5t-44.5 -72t-69.5 -48t-91.5 -17.5q-54 0 -95.5 17.5t-69.5 48t-42 72t-14 89.5t15.5 89.5t44.5 72t69.5 48t91.5 17.5q54 0 95.5 -17.5t69.5 -48t42 -72t14 -89.5zM402 205q0 42 -8.5 80t-25.5 67t-42.5 46t-59.5 17t-59.5 -14.5t-42.5 -40.5 t-25.5 -61.5t-8.5 -77.5t8.5 -80t25.5 -67.5t42.5 -46.5t59.5 -17t59.5 14.5t42.5 41t25.5 62t8.5 77.5z" />
<glyph unicode="p" horiz-adv-x="546" d="M503 229q0 -54 -21.5 -98.5t-56.5 -76.5t-80 -50t-93 -18q-47 0 -83 11v-143q0 -38 3 -59.5t10.5 -32.5t21 -15t34.5 -7q2 0 2 -8t-2 -8q-22 1 -48.5 1.5t-51.5 0.5t-55 -0.5t-52 -1.5q-2 0 -2 8t2 8q21 3 34 7t20 15t9.5 32t2.5 60v443q0 39 -3 60t-11 31.5t-22 14 t-35 6.5q-2 0 -2 8t2 8h141v-47h1q23 21 60 39.5t75 18.5q43 0 79.5 -16t63.5 -44t42 -65.5t15 -81.5zM424 214q0 38 -10.5 70.5t-30 56t-48.5 36.5t-65 13q-28 0 -55.5 -8.5t-45.5 -22.5v-326q21 -8 47 -13t51 -5q37 0 66 15t49.5 41.5t31 63t10.5 79.5z" />
<glyph unicode="q" horiz-adv-x="532" d="M449 -146q0 -38 3 -59.5t10.5 -32.5t21 -15t34.5 -7q2 0 2 -8t-2 -8q-22 1 -48.5 1.5t-51.5 0.5t-55 -0.5t-52 -1.5q-2 0 -2 8t2 8q21 3 34 7t20 15t9.5 32t2.5 60v189h-1q-23 -21 -59.5 -39t-73.5 -18q-48 0 -85 16t-62.5 43.5t-39 65.5t-13.5 82q0 54 21 98.5 t57.5 76.5t86 50t106.5 18q33 0 71.5 -5t63.5 -12v-565zM377 387q-21 8 -46 13t-50 5q-36 0 -65 -14.5t-50 -41t-32.5 -62.5t-11.5 -79q0 -38 10.5 -70.5t30 -56t48.5 -36.5t65 -13q28 0 55.5 8.5t45.5 22.5v324z" />
<glyph unicode="r" horiz-adv-x="373" d="M368 389q0 -7 -4.5 -15t-11 -14t-13.5 -10t-13 -4q-8 0 -14 4l-14 10q-7 5 -14.5 9.5t-16.5 4.5q-12 0 -23 -7.5t-21 -17.5q-23 -23 -33.5 -61.5t-10.5 -86.5v-73q0 -39 3 -60t10.5 -32t21 -15t34.5 -7q2 0 2 -8t-2 -8q-22 1 -48.5 1.5t-51.5 0.5t-55 -0.5t-52 -1.5 q-2 0 -2 8t2 8q21 3 34 7t20 15t9.5 32t2.5 60v169q0 38 -3 59t-11 31.5t-22 14.5t-35 7q-2 0 -2 8t2 8h141v-116h2q7 29 28 61q18 29 43 49.5t51 20.5t46.5 -15.5t20.5 -35.5z" />
<glyph unicode="s" horiz-adv-x="404" d="M354 116q0 -25 -10 -48t-29.5 -41t-48.5 -28.5t-67 -10.5q-43 0 -78 11t-60 24q-1 1 -2.5 5t-2.5 15t-2 32t-2 55q0 2 6 2.5t7 -1.5q23 -52 59.5 -86.5t81.5 -34.5q41 0 64.5 20.5t23.5 52.5q0 20 -9.5 35t-25.5 27t-37 22l-41 20l-45 23q-22 11 -39.5 26.5t-28.5 35.5 t-11 47q0 24 9.5 46t28 38.5t46 26.5t63.5 10q35 0 58 -10t31 -10q15 0 20 22q0 2 8 2t8 -2l1 -142q0 -2 -7 -2q-6 0 -7 2q-20 51 -49 84.5t-72 33.5q-22 0 -37 -6.5t-24 -16.5t-13 -21.5t-4 -21.5q0 -18 8.5 -31t23 -24t33.5 -21l39 -19q24 -11 47.5 -23.5t42.5 -28.5 t31 -37.5t12 -51.5z" />
<glyph unicode="t" horiz-adv-x="355" d="M27 395q-6 0 -6 7q0 5 4 8l67 62l64 65q1 1 2.5 1t3.5 -1q4 -2 4 -4v-107h165q2 0 2.5 -5t0.5 -11q0 -5 -0.5 -10t-2.5 -5h-165v-273q0 -49 23 -69t54 -20q18 0 40.5 15t35.5 36q1 1 3.5 0t4.5 -3l4 -4q2 -2 1 -4q-8 -15 -20.5 -30.5t-29 -28t-37 -20.5t-44.5 -8 q-45 0 -76 29t-31 90v290h-67z" />
<glyph unicode="u" horiz-adv-x="576" d="M399 0v100h-2q-10 -23 -26.5 -44t-37.5 -36.5t-46 -24.5t-54 -9q-63 0 -101 43t-38 125v141q0 38 -3 59.5t-10.5 32.5t-21 15t-34.5 7q-2 0 -2 8t2 8h141v-268q0 -54 25 -87t76 -33q26 0 49 9t40 26q18 18 29.5 41.5t11.5 52.5v129q0 38 -3 59.5t-10.5 32.5t-21 15 t-34.5 7q-2 0 -2 8t2 8h141v-297q0 -38 3 -59t11 -31.5t22 -14.5t35 -7q2 0 2 -8t-2 -8h-141z" />
<glyph unicode="v" horiz-adv-x="458" d="M464 412q-23 -3 -31.5 -7.5t-15.5 -11.5q-6 -6 -12.5 -17.5t-14.5 -31.5l-20 -48l-28 -72l-53 -134l-8 -23l-11 -29l-10 -28l-7 -22l-39 -2q-5 16 -17 50l-27 72q-14 40 -30 80l-28 67l-40 93q-13 31 -27 44q-8 8 -19.5 11.5t-41.5 8.5q-2 0 -2 8t2 8q22 -1 52.5 -2 t55.5 -1t54 1t51 2q2 0 2 -8t-2 -8q-27 -4 -38 -10t-11 -21q0 -14 7.5 -37t21.5 -60l79 -206l56 146q27 70 40 106.5t13 53.5q0 13 -10 18t-43 10q-2 0 -2 8t2 8l43 -2q21 -1 38 -1q16 0 32.5 1t38.5 2q2 0 2 -8t-2 -8z" />
<glyph unicode="w" horiz-adv-x="691" d="M696 412q-23 -3 -31 -7.5t-15 -11.5q-6 -6 -12 -17t-14.5 -30.5t-19.5 -49.5l-25 -72l-47 -134l-8 -23l-10 -29l-8 -28l-7 -22l-26 -2q-5 16 -15.5 46t-25.5 68l-30 78l-31 77l-11 27l-83 -192q-4 -9 -9 -23l-12 -29q-6 -14 -11 -27.5t-8 -22.5l-23 -2q-5 16 -17 50 l-27 72q-14 40 -30 80l-28 67l-22 54l-17.5 39t-13.5 26.5t-13 17.5q-8 8 -20 11.5t-42 8.5q-2 0 -2 8t2 8q22 -1 52.5 -2t55.5 -1t52.5 1t49.5 2q2 0 2 -8t-2 -8q-27 -4 -38 -10t-11 -21q0 -14 7.5 -37t21.5 -60l78 -182l93 216l-21 45q-10 21 -18 29t-17 12t-39 8 q-2 0 -2 8t2 8q22 -1 48 -2t51 -1t51.5 1t48.5 2q2 0 2 -8t-2 -8q-22 -3 -34 -9t-15 -21q-1 -4 -1 -10q0 -11 5 -28q6 -23 21 -60l77 -191l47 131l21 62q10 26 16 45t8.5 31.5t2.5 21.5q-1 13 -10.5 18t-42.5 10q-2 0 -2 8t2 8l44 -2q23 -1 40 -1q16 0 31 1t37 2q2 0 2 -8 t-2 -8z" />
<glyph unicode="x" horiz-adv-x="482" d="M470 -3q-22 1 -41.5 2t-44.5 1t-55 -1t-52 -2q-2 0 -2 8t2 8q23 3 34 8t11 16q0 13 -15.5 37t-47.5 67l-30 41l-37 -48l-34 -42q-14 -20 -22.5 -34.5t-8.5 -22.5t6.5 -13t34.5 -9q2 0 2 -8t-2 -8l-44 2q-22 1 -38 1q-17 0 -32.5 -1t-37.5 -2q-2 0 -2 8t2 8q21 2 34 7.5 t24.5 16t24.5 27.5l34 45l76 99l-35 47l-63 85q-23 30 -38 45q-14 14 -27 19.5t-31 7.5q-2 0 -2 8t2 8q22 -1 47.5 -2t50.5 -1t51.5 1t48.5 2q2 0 2 -8t-2 -8q-23 -3 -34.5 -8.5t-11.5 -16.5q0 -14 15.5 -37.5t46.5 -65.5l21 -28l32 41l29 39.5t21.5 32.5t8.5 21 q0 8 -6.5 13t-34.5 9q-2 0 -2 8t2 8l44 -2q22 -1 38 -1q17 0 32.5 1t37.5 2q2 0 2 -8t-2 -8q-21 -2 -34 -7.5t-24.5 -16t-24.5 -28.5l-34 -44l-66 -86l45 -60l65 -87q23 -31 38 -46q13 -13 24.5 -17.5t28.5 -6.5q2 0 2 -8t-2 -8z" />
<glyph unicode="y" horiz-adv-x="463" d="M469 412q-23 -3 -31.5 -7.5t-15.5 -11.5q-6 -6 -12.5 -17t-14.5 -30l-19 -50l-28 -72l-137 -362q-16 -47 -32.5 -75.5t-34.5 -44.5t-37.5 -21.5t-41.5 -5.5q-13 0 -30 3t-20 6q-2 2 -0.5 11.5t5 20t8.5 18.5t10 8q2 0 13 -2t19 -2q42 0 67 19.5t42 63.5l38 98 q-10 34 -23 73l-27 77l-28 77l-26 69l-21 54q-8 23 -14.5 39t-12 26.5t-12.5 17.5q-8 8 -19.5 11.5t-41.5 8.5q-2 0 -2 8t2 8q22 -1 52.5 -2t55.5 -1t53 1t50 2q2 0 2 -8t-2 -8q-25 -3 -37.5 -8.5t-14.5 -18.5v-6q0 -12 5 -31q8 -24 23 -64l79 -216l59 156q26 67 39 105 t13 55q0 13 -10 18t-43 10q-2 0 -2 8t2 8l45 -2q23 -1 40 -1q16 0 31 1t37 2q2 0 2 -8t-2 -8z" />
<glyph unicode="z" horiz-adv-x="431" d="M254 400q-59 0 -93 -6t-52 -18.5t-25 -31.5t-12 -45q-1 -2 -9.5 -1.5t-8.5 2.5q0 6 1 23.5t2 38.5l2 39q1 19 1 28q14 -1 37 -2t50 -1.5t53 -0.5h47q30 0 68.5 0.5t67.5 1.5q4 0 5 -7t-2 -12l-268 -382h121q40 0 63.5 5.5t38 19t23.5 35t18 54.5q0 2 3.5 2.5t6.5 0.5 q4 0 6.5 -1t2.5 -3q-1 -10 -3 -27l-4 -37l-4 -37q-2 -17 -4 -27t-11.5 -12t-25.5 -2q-18 0 -46.5 1.5t-66.5 1.5q-58 0 -105 -1l-97 -2q-2 0 -4 8q-1 3 -1 5q0 5 3 8l268 382h-46z" />
<glyph unicode="{" horiz-adv-x="351" d="M115 213q31 -7 57.5 -21t45.5 -33t30 -43.5t11 -54.5q0 -33 -13.5 -60.5t-29.5 -54t-29.5 -54.5t-13.5 -62q0 -22 11 -39.5t29.5 -30t43 -21.5t51.5 -14q8 -2 8 -6v-3q-3 -5 -7 -5h-2q-43 5 -77.5 20t-58.5 36.5t-37 47.5t-13 53q0 36 14 66t30.5 57t30 52.5t13.5 51.5 q0 43 -40 71.5t-106 38.5q-11 2 -11 8t11 8q66 10 106 39t40 71q0 26 -13.5 51.5t-30 52.5t-30.5 57.5t-14 66.5q0 27 13 53t37 47t58.5 36t77.5 20h2q4 0 7 -5v-3q0 -4 -8 -6q-27 -4 -51.5 -13t-43 -22t-29.5 -30.5t-11 -39.5q0 -34 13.5 -62t29.5 -54.5t29.5 -54 t13.5 -60.5q0 -60 -40.5 -98.5t-103.5 -53.5z" />
<glyph unicode="|" horiz-adv-x="222" d="M123 -293q0 -1 -3.5 -1.5t-8.5 -0.5q-4 0 -8 0.5t-4 1.5v1018q0 1 4 1.5t8 0.5q5 0 8.5 -0.5t3.5 -1.5v-1018z" />
<glyph unicode="}" horiz-adv-x="351" d="M236 213q-63 15 -103.5 53.5t-40.5 98.5q0 33 13.5 60.5t29.5 54t29.5 54.5t13.5 62q0 22 -11 39.5t-29.5 30.5t-43 22t-51.5 13q-8 2 -8 6q0 1 1 3q2 5 6 5h2q44 -5 78.5 -20t58.5 -36t36.5 -47t12.5 -53q0 -36 -13.5 -66.5t-30 -57.5t-30.5 -52.5t-14 -51.5 q0 -42 40 -71t106 -39q11 -2 11 -8t-11 -8q-66 -10 -106 -38.5t-40 -71.5q0 -26 14 -51.5t30.5 -52.5t30 -57t13.5 -66q0 -27 -12.5 -53t-36.5 -47.5t-58.5 -36.5t-78.5 -20h-2q-4 0 -6 5q-1 2 -1 3q0 4 8 6q27 5 51.5 14t43 21.5t29.5 30t11 39.5q0 34 -13.5 62t-29.5 54.5 t-29.5 54t-13.5 60.5q0 30 11 54.5t30 43.5t45.5 33t57.5 21z" />
<glyph unicode="~" horiz-adv-x="339" d="M238 209h-4q-19 0 -38 8q-20 9 -38 21l-36 20q-14 9 -27 9h-3q-23 -2 -35.5 -17.5t-19.5 -40.5h-21q2 20 8 38.5t16.5 33.5t25.5 24.5t35 10.5h4q19 0 37 -8q20 -10 39 -22l35 -20q17 -10 30 -9q45 3 55 58h21q-2 -19 -8 -38t-16 -33.5t-24.5 -24t-35.5 -10.5z" />
<glyph unicode="&#xa1;" horiz-adv-x="214" d="M159 602q0 -21 -13.5 -37t-38.5 -16q-26 0 -39 16t-13 37q0 19 13 34.5t39 15.5q25 0 38.5 -15.5t13.5 -34.5zM151 50q0 -38 -10.5 -52.5t-32.5 -14.5t-32 14.5t-10 52.5q0 30 5 73l11 97q6 54 11.5 118t6.5 136q0 2 8 2t8 -2q1 -72 6.5 -136t11.5 -118l12 -97 q5 -43 5 -73z" />
<glyph unicode="&#xa2;" horiz-adv-x="471" d="M410 66q-17 -24 -40 -41.5t-51 -27.5t-59 -11q-2 -36 -2.5 -57t-0.5 -23t-3.5 -2.5t-8.5 -0.5q-4 0 -8 0.5t-4 2.5q0 1 0.5 23t2.5 58q-41 3 -76.5 21t-61.5 47.5t-40.5 69t-14.5 85.5q0 50 16 91.5t44 71.5t66 47t81 19q1 27 1.5 43t0.5 17q0 2 4 2.5t8 0.5q5 0 9 -0.5 t4 -2.5q0 -1 -0.5 -16.5t-1.5 -42.5q21 -1 39.5 -5.5t33.5 -9.5l24 -9q10 -3 14 -3q15 0 20 22q0 2 8 2t8 -2v-142q0 -2 -7 -2q-6 0 -7 2q-9 23 -23 45t-31 39t-37.5 28.5t-42.5 14.5q-1 -37 -2.5 -86.5t-3.5 -102t-3.5 -105t-3.5 -96.5q5 -1 8 -1h9q48 0 86.5 26.5 t61.5 65.5q5 7 8 4q1 -2 1 -5q0 -4 -8 -22.5t-17 -31.5zM250 420q-30 -3 -54 -19.5t-41.5 -43.5t-26.5 -63t-9 -77q0 -71 32.5 -119.5t85.5 -63.5q2 44 3.5 96t3.5 104t3.5 100.5t2.5 85.5z" />
<glyph unicode="&#xa3;" horiz-adv-x="467" d="M440 149l-6 -31l-8 -42l-10 -40l-6 -27q-2 -9 -13 -11.5t-28 -2.5t-52.5 1t-86.5 1h-26q-12 0 -33 -0.5t-45.5 -1t-50 -2t-45.5 -2.5q-5 0 -5 7q0 8 3 11q33 9 60.5 25.5t47.5 38t31 47t11 52.5q0 26 -7.5 48.5t-18.5 43.5h-114q-2 0 -3 4t-1 9t1 9t3 4h99l-23 36 q-11 19 -20 39.5t-15 42.5t-6 48q0 42 15.5 78t43 63t66.5 42t87 15q38 0 69.5 -16.5t41.5 -40.5q0 -3 -5.5 -10t-12.5 -14.5t-14 -13t-10 -6.5q-3 0 -14.5 10t-28 22t-36.5 22t-40 10q-45 0 -75.5 -29.5t-30.5 -96.5q0 -27 9.5 -52t23.5 -49l29 -48q15 -25 26 -52h134 q2 0 3.5 -4t1.5 -9t-1.5 -9t-3.5 -4h-124q3 -13 5 -27t2 -28q0 -22 -8 -45t-21 -43.5t-28.5 -38t-30.5 -28.5q8 -1 26.5 -2t39.5 -1h80q25 0 40.5 1t25.5 3.5t16.5 7t13.5 10.5q5 5 10 14.5t9.5 20.5t8.5 22l7 21q1 2 9 1t8 -3z" />
<glyph unicode="&#xa4;" horiz-adv-x="626" d="M548 65q-20 -25 -47 -42.5t-59.5 -27t-66.5 -9.5q-48 0 -91 17.5t-77.5 49.5t-58.5 79t-33 105h-84q-1 0 -1 3v8v7q0 4 1 4h81q-3 24 -3 50q0 11 0.5 22.5t1.5 22.5h-80q-1 0 -1 3v8v7q0 4 1 4h82q9 63 32.5 114t60.5 86.5t84.5 55t104.5 19.5q37 0 82.5 -8t83.5 -22 l2 -134q0 -2 -6 -2.5t-6 0.5q-26 65 -70.5 103.5t-102.5 38.5q-39 0 -70 -19t-54.5 -52.5t-37.5 -79.5t-19 -100h237q1 0 1.5 -3.5t0.5 -7.5t-0.5 -7.5t-1.5 -3.5h-238q-1 -7 -1 -14v-14q0 -35 3 -67h236q1 0 1.5 -3.5t0.5 -7.5t-0.5 -7.5t-1.5 -3.5h-233q9 -57 27.5 -98.5 t44 -68t57.5 -39.5t66 -13q29 0 55 9.5t48 24.5t39.5 34t29.5 38q5 7 8 4q1 -2 1 -5q0 -6 -9 -25t-20 -33z" />
<glyph unicode="&#xa5;" horiz-adv-x="543" d="M560 638q2 0 2 -8t-2 -8q-25 -2 -43 -12t-32 -25.5t-25 -35.5l-26 -44l-121 -209h175q1 0 1.5 -3.5t0.5 -7.5t-0.5 -7.5t-1.5 -3.5h-179v-95h179q1 0 1.5 -3.5t0.5 -7.5t-0.5 -7.5t-1.5 -3.5h-179v-39q0 -38 3.5 -58t14 -29t29 -11.5t47.5 -5.5q2 0 2 -8t-2 -8 q-7 0 -23 0.5t-34.5 1t-37.5 0.5h-30h-30h-36l-36 -2h-33q-2 0 -2 8t2 8q29 2 47.5 3.5t28.5 11t13.5 30t3.5 59.5v39h-181q-1 0 -1 3v8v7q0 4 1 4h181v95h-181q-1 0 -1 3v8v7q0 4 1 4h176l-145 236l-30 44q-11 16 -22 25.5t-23.5 14t-32.5 6.5q-2 0 -2 8t2 8q7 0 20 -0.5 t28 -1t30 -0.5h27q23 0 51.5 0.5t57.5 1.5q2 0 2 -8t-2 -8q-27 -2 -39 -7.5t-12 -18.5q0 -14 18 -43l136 -224l126 219q17 30 17 47q0 23 -48 27q-2 0 -2 8t2 8q15 -1 42 -1.5t50 -0.5q16 0 32.5 0.5t45.5 1.5z" />
<glyph unicode="&#xa7;" horiz-adv-x="484" d="M449 214q0 -42 -24 -75.5t-61 -52.5q17 -19 26.5 -40t9.5 -46q0 -33 -16 -61.5t-41.5 -50.5t-57 -34.5t-63.5 -12.5q-55 0 -93 22t-48 46q-1 3 4 10t12.5 14.5t15 13.5t10.5 6t16 -11.5t32.5 -26t44.5 -26t52 -11.5q38 0 57.5 25.5t19.5 59.5q0 27 -14 48.5t-36.5 40.5 t-51 36.5t-56.5 36.5l-52 35q-25 18 -44 37.5t-30 41.5t-11 49q0 42 24 75.5t60 52.5q-16 19 -25.5 40t-9.5 46q0 31 15.5 58.5t41 48.5t58 33t66.5 12q48 0 82 -16.5t44 -40.5q0 -3 -5.5 -10t-12.5 -14.5t-14 -13t-10 -6.5q-3 0 -15 10t-29.5 22t-39 22t-45.5 10 q-39 0 -60 -22t-21 -56q0 -27 14 -48.5t36.5 -40.5t51 -36.5t56.5 -36.5l52 -35q25 -18 44 -37.5t30 -41.5t11 -49zM394 177q0 36 -27 64.5t-66 54.5t-81.5 51.5t-73.5 56.5q-20 -12 -30.5 -30.5t-10.5 -48.5q0 -36 27 -64.5t66 -54.5t81.5 -51.5t73.5 -56.5 q20 12 30.5 30.5t10.5 48.5z" />
<glyph unicode="&#xa8;" horiz-adv-x="340" d="M318 551q0 -20 -15 -36t-36 -16q-20 0 -35 16t-15 36t15 36t35 16q21 0 36 -16t15 -36zM123 550q0 -20 -15 -35.5t-35 -15.5q-21 0 -36 15.5t-15 35.5t15 36t36 16q20 0 35 -16t15 -36z" />
<glyph unicode="&#xa9;" horiz-adv-x="765" d="M714 320q0 -69 -26.5 -130t-71.5 -106t-106 -71.5t-130 -26.5t-130 26.5t-106 71.5t-71.5 106t-26.5 130t26.5 130t71.5 106t106 71.5t130 26.5t130 -26.5t106 -71.5t71.5 -106t26.5 -130zM691 320q0 65 -24.5 122t-66.5 99.5t-98.5 67t-121.5 24.5t-121.5 -24.5 t-98.5 -67t-66.5 -99.5t-24.5 -122t24.5 -122t66.5 -99.5t98.5 -67t121.5 -24.5t121.5 24.5t98.5 67t66.5 99.5t24.5 122zM500 166q-8 -8 -40.5 -17t-76.5 -9q-34 0 -66.5 11.5t-58 34t-40.5 56t-15 76.5q0 45 15 79t40 56.5t58.5 34t70.5 11.5q27 0 51.5 -6t37.5 -6 q8 0 11 1.5t6 6.5q1 1 4 1q4 0 4 -2l3 -106q0 -2 -5.5 -2.5t-6.5 1.5q-23 51 -47 73.5t-61 22.5q-53 0 -86.5 -38.5t-33.5 -119.5q0 -35 8.5 -66t24.5 -54t39.5 -36.5t53.5 -13.5q23 0 41 9.5t31 24.5t22 34t15 38q0 1 7 1t7 -4q0 -9 -1 -23.5t-3 -29t-4.5 -26t-4.5 -13.5z " />
<glyph unicode="&#xaa;" horiz-adv-x="327" d="M317 398q-8 -24 -23 -39.5t-42 -15.5q-19 0 -33.5 13t-20.5 33q-11 -21 -32 -33.5t-49 -12.5q-16 0 -30.5 6t-25.5 16t-18 23t-7 28q0 22 9 40.5t28.5 32t50.5 21t74 8.5l1 19v7q0 32 -17 50q-18 19 -52 19q-24 0 -47 -14.5t-37 -31.5l-6 7q3 12 13.5 25.5t26 25.5 t35 19.5t40.5 7.5q46 0 73 -28q24 -25 24 -73v-7l-4 -126q-1 -26 9 -34t19 -8q15 0 23 10.5t13 19.5zM198 502q-64 -1 -91 -30q-16 -17 -16 -40q0 -26 15 -41t37 -15q15 0 26.5 6.5t24.5 17.5l1 5z" />
<glyph unicode="&#xab;" horiz-adv-x="439" d="M243 57q2 -2 -4 -9q-5 -5 -7 -5l-2 2q-14 13 -46 39l-52 42l-48 38l-39 30q-5 3 -5 8t5 8q17 12 39 30l48 38l50 42l50 41q2 0 7 -5q6 -7 4 -9l-120 -145zM418 57v-1q0 -3 -4 -8q-5 -5 -7 -5l-47 41l-48 42l-45 38q-21 18 -37 30q-5 3 -5 8t5 8q16 12 37 30l45 38l48 42 l47 41q2 0 7 -5q6 -7 4 -9l-120 -145z" />
<glyph unicode="&#xad;" horiz-adv-x="291" d="M266 275q1 0 1.5 -4t0.5 -9t-0.5 -9t-1.5 -4h-241q-1 0 -1 4v9v9q0 4 1 4h241z" />
<glyph unicode="&#xae;" horiz-adv-x="765" d="M714 320q0 -69 -26.5 -130t-71.5 -106t-106 -71.5t-130 -26.5t-130 26.5t-106 71.5t-71.5 106t-26.5 130t26.5 130t71.5 106t106 71.5t130 26.5t130 -26.5t106 -71.5t71.5 -106t26.5 -130zM691 320q0 65 -24.5 122t-66.5 99.5t-98.5 67t-121.5 24.5t-121.5 -24.5 t-98.5 -67t-66.5 -99.5t-24.5 -122t24.5 -122t66.5 -99.5t98.5 -67t121.5 -24.5t121.5 24.5t98.5 67t66.5 99.5t24.5 122zM565 147q-11 0 -32.5 0.5t-40.5 0.5h-10q-3 3 -12 18l-18 32l-22 36q-10 18 -18 29q-14 18 -23.5 27t-26.5 9q-3 0 -13 -0.5t-15 -1.5v-86 q0 -15 2 -24.5t8 -15t17 -8t28 -5.5q2 0 1.5 -5.5t-2.5 -5.5q-3 0 -12 0.5t-21 0.5h-24h-18h-36q-21 0 -40 -1q-2 0 -2 9q0 2 1 2q15 2 24.5 4.5t14 8.5t6 15.5t1.5 24.5v218q0 15 -1.5 24.5t-6 15.5t-14 8.5t-24.5 4.5q-1 0 -1 2q0 9 2 9q19 -1 40 -1h36q7 0 18 0.5t22 1.5 t21.5 1.5t16.5 0.5q59 0 84.5 -25t25.5 -59q0 -38 -22 -61.5t-51 -40.5q20 -16 37 -38.5t30 -44.5l23 -37q11 -18 13 -20q5 -5 13.5 -7.5t20.5 -4.5q2 0 2 -7q0 -4 -2 -4zM448 389q0 17 -5.5 33.5t-16.5 29.5t-28 20.5t-40 7.5q-5 0 -12 -0.5t-12 -2.5v-155q11 -5 28 -6 t26 -1q21 0 36 15q24 24 24 59z" />
<glyph unicode="&#xaf;" horiz-adv-x="340" d="M43 526v50h254v-50h-254z" />
<glyph unicode="&#xb0;" horiz-adv-x="300" d="M258 542q0 -23 -8.5 -43.5t-23.5 -35.5t-35 -23.5t-43 -8.5q-47 0 -76.5 32t-29.5 78q0 47 30.5 78t77.5 31t77.5 -31t30.5 -77zM232 542q0 17 -6 32.5t-17 27t-26 18.5t-33 7q-35 0 -58.5 -25.5t-23.5 -60.5q0 -17 6 -33t16.5 -28t25 -19t32.5 -7t33 7t26.5 19t18 28 t6.5 34z" />
<glyph unicode="&#xb2;" horiz-adv-x="484" d="M332 61q27 0 43 6.5t25 18.5t14 27.5t12 33.5q0 1 3 1q4 0 7.5 -0.5t6 -2t2.5 -2.5q-1 -4 -3 -18l-6 -31l-6 -35q-3 -18 -6 -32l-5 -27h-396l-4 17l119 120l86 92.5t59.5 72t37 58t19 50.5t5.5 50q0 36 -11.5 61.5t-30 42t-42 24.5t-47.5 8q-40 0 -77 -22.5t-67 -70.5 q-1 -2 -6.5 1.5t-4.5 5.5q28 65 78.5 103t112.5 38q31 0 62 -10.5t55.5 -32t40 -53.5t15.5 -74q0 -47 -23 -90.5t-65 -91.5t-101 -105l-134 -133h232z" />
<glyph unicode="&#xb3;" horiz-adv-x="465" d="M421 170q0 -36 -14 -69.5t-41.5 -59t-68 -40.5t-93.5 -15q-44 0 -90 20q-22 8 -43 22.5t-31.5 24t-10.5 11.5q0 1 3 6q5 6 7 4q41 -31 73 -42t69 -11q35 0 64 12t50 33t32.5 48.5t11.5 57.5q0 33 -11 60t-29.5 45.5t-44.5 29t-56 10.5q-22 0 -43 -5t-37 -10q-1 0 -2.5 3 t-2.5 6.5t-1.5 7t0.5 3.5l42 12q16 5 24 8q69 23 99 60.5t30 92.5q0 51 -33 82.5t-87 31.5q-42 0 -79 -26t-65 -70q-1 -2 -7 2t-5 6q26 60 76 95t116 35q41 0 72 -13t52 -34.5t31.5 -48.5t10.5 -55q0 -51 -38 -92.5t-122 -69.5q47 -1 83 -15.5t60 -38t36.5 -53.5t12.5 -61z " />
<glyph unicode="&#xb4;" horiz-adv-x="340" d="M98 488h-17l115 163h105z" />
<glyph unicode="&#xb5;" d="M1017 -153q-37 -26 -87 -46t-118 -20q-60 0 -139.5 26.5t-164.5 89.5l-120 89h-3q-81 0 -143 28t-104 74.5t-64 106.5t-22 123t22 123t65 106.5t105 75t143 28.5t143 -28t104.5 -74.5t64.5 -106t22 -122.5q0 -52 -15 -102.5t-44.5 -93t-72.5 -75t-99 -48.5l79 -59 q84 -60 167.5 -90t160.5 -30q34 0 65 12t48 26q2 2 6 -4q2 -4 2 -6t-1 -3zM628 318q0 67 -17.5 123.5t-49.5 98t-76.5 65t-99.5 23.5q-56 0 -100.5 -22.5t-75.5 -63.5t-47.5 -97.5t-16.5 -124.5q0 -67 17.5 -123.5t49 -98t76 -65t99.5 -23.5q56 0 100.5 22.5t76 63.5 t48 97.5t16.5 124.5z" />
<glyph unicode="&#xb6;" horiz-adv-x="688" d="M53 318q0 66 21.5 124t63.5 102t103.5 69.5t142.5 25.5h20v-642h-19q-75 0 -136 22.5t-104.5 64t-67.5 101t-24 133.5zM476 637q48 2 96 6t90 9q3 0 3 -9q0 -8 -3 -9l-132 -17v-601l132 -17q3 -1 3 -9t-3 -8q-42 5 -90 9t-96 6v640z" />
<glyph unicode="&#xb7;" horiz-adv-x="194" d="M152 213q0 -20 -14.5 -36.5t-40.5 -16.5q-27 0 -41 16.5t-14 36.5q0 22 14 39t41 17q26 0 40.5 -17t14.5 -39z" />
<glyph unicode="&#x2219;" horiz-adv-x="194" d="M152 213q0 -20 -14.5 -36.5t-40.5 -16.5q-27 0 -41 16.5t-14 36.5q0 22 14 39t41 17q26 0 40.5 -17t14.5 -39z" />
<glyph unicode="&#xb8;" horiz-adv-x="340" d="M171 -72q51 0 78.5 -21.5t27.5 -58.5q0 -19 -10 -34.5t-26.5 -26.5t-37 -17t-42.5 -6q-30 0 -55.5 14t-36.5 30l-1 1q0 2 4 5q5 4 6 3q12 -13 31 -23t45 -10q35 0 54 14.5t19 37.5q0 29 -23.5 42.5t-61.5 13.5q-6 0 -11.5 -0.5t-10.5 -1.5l38 106h26l-25 -68h12z" />
<glyph unicode="&#xb9;" horiz-adv-x="407" d="M362 -2q-7 0 -25.5 0.5t-40.5 1t-43 0.5h-33h-33h-42l-43 -2h-35q-2 0 -2 8t2 8q38 2 60 5.5t33 14t14 30.5t3 56v378q0 38 -4.5 60t-18 32.5t-38.5 11.5q-9 1 -19 1q-21 0 -50 -2q-3 0 -3 6q0 10 4 11q41 5 96 14l101 16h2q3 0 3 -4q1 -4 1 -11v-513q0 -36 3.5 -56 t14.5 -30.5t33.5 -14t59.5 -5.5q2 0 2 -8t-2 -8z" />
<glyph unicode="&#xba;" horiz-adv-x="347" d="M324 497q0 -32 -10.5 -60t-30 -48.5t-47.5 -32.5t-63 -12q-38 0 -66.5 12t-47 32.5t-28 48.5t-9.5 60t10.5 60t30.5 48.5t48 32.5t62 12q39 0 67 -12t47 -32.5t28 -48.5t9 -60zM261 492q0 25 -5 50t-15.5 44.5t-27 31.5t-40.5 12q-45 0 -66 -36.5t-21 -90.5 q0 -25 5 -50.5t15.5 -45t27 -32t39.5 -12.5q46 0 67 37.5t21 91.5z" />
<glyph unicode="&#xbb;" horiz-adv-x="439" d="M206 347q-2 2 4 9q5 5 7 5l49 -41l51 -42l47 -38q23 -18 40 -30q5 -3 5 -8t-5 -8l-39 -30l-49 -38l-51 -42q-32 -26 -46 -39l-2 -2q-2 0 -7 5q-6 7 -4 9l120 145zM31 347l-1 1q0 3 5 8t7 5l46 -41l49 -42l45 -38q21 -18 37 -30q5 -3 5 -8t-5 -8q-16 -12 -37 -30l-45 -38 l-49 -42l-46 -41q-2 0 -7 5q-6 7 -4 9l120 145z" />
<glyph unicode="&#xbf;" horiz-adv-x="361" d="M263 604q0 -21 -13 -37t-39 -16q-25 0 -38.5 16t-13.5 37q0 19 13.5 34.5t38.5 15.5q26 0 39 -15.5t13 -34.5zM330 88q-22 -42 -61 -73.5t-94 -31.5q-31 0 -57 10t-45.5 28t-30.5 43t-11 55q0 23 9 44t22 39.5t28 33.5l24 25q20 20 36.5 40.5t29.5 43t20.5 49t7.5 58.5 v11q0 6 -1 12q-1 5 8 5l1 1q8 0 9 -6l3 -24q2 -10 2 -24q0 -52 -19.5 -91t-43 -72t-43 -63.5t-19.5 -66.5q0 -26 9 -45t23 -32t32.5 -19t37.5 -6q31 0 61.5 16.5t50.5 47.5q2 2 7 -2q5 -2 5 -4q0 -1 -1 -2z" />
<glyph unicode="&#xc0;" horiz-adv-x="600" d="M593 -2q-7 0 -21 0.5t-30 1t-32 0.5h-27q-23 0 -57 -0.5t-63 -1.5q-2 0 -2 8t2 8q27 3 41.5 8.5t19.5 19.5q2 6 2 15t-3 22q-5 24 -18 63l-38 116h-203q-27 -90 -40 -138t-13 -71q0 -22 11.5 -27.5t33.5 -7.5q2 0 2 -8t-2 -8q-15 1 -38 1.5t-46 0.5h-15q-6 0 -14 -0.5 t-18 -1t-24 -0.5q-2 0 -2 8t2 8q16 2 26.5 4.5t19.5 11.5q8 8 14.5 20t14 31.5t16.5 47.5l21 67l121 381q5 15 8 31l6 33q0 3 10.5 5t23.5 2.5t23 0.5q11 0 11 -1l156 -472q19 -57 32.5 -88.5t26 -47t27 -20t35.5 -6.5q2 0 2 -8t-2 -8zM264 578q0 1 -2 1q-1 0 -1 -1 l-88 -289h184zM75 862h105l115 -163h-17z" />
<glyph unicode="&#xc1;" horiz-adv-x="600" d="M593 -2q-7 0 -21 0.5t-30 1t-32 0.5h-27q-23 0 -57 -0.5t-63 -1.5q-2 0 -2 8t2 8q27 3 41.5 8.5t19.5 19.5q2 6 2 15t-3 22q-5 24 -18 63l-38 116h-203q-27 -90 -40 -138t-13 -71q0 -22 11.5 -27.5t33.5 -7.5q2 0 2 -8t-2 -8q-15 1 -38 1.5t-46 0.5h-15q-6 0 -14 -0.5 t-18 -1t-24 -0.5q-2 0 -2 8t2 8q16 2 26.5 4.5t19.5 11.5q8 8 14.5 20t14 31.5t16.5 47.5l21 67l121 381q5 15 8 31l6 33q0 3 10.5 5t23.5 2.5t23 0.5q11 0 11 -1l156 -472q19 -57 32.5 -88.5t26 -47t27 -20t35.5 -6.5q2 0 2 -8t-2 -8zM264 578q0 1 -2 1q-1 0 -1 -1 l-88 -289h184zM268 699h-17l115 163h105z" />
<glyph unicode="&#xc2;" horiz-adv-x="600" d="M593 -2q-7 0 -21 0.5t-30 1t-32 0.5h-27q-23 0 -57 -0.5t-63 -1.5q-2 0 -2 8t2 8q27 3 41.5 8.5t19.5 19.5q2 6 2 15t-3 22q-5 24 -18 63l-38 116h-203q-27 -90 -40 -138t-13 -71q0 -22 11.5 -27.5t33.5 -7.5q2 0 2 -8t-2 -8q-15 1 -38 1.5t-46 0.5h-15q-6 0 -14 -0.5 t-18 -1t-24 -0.5q-2 0 -2 8t2 8q16 2 26.5 4.5t19.5 11.5q8 8 14.5 20t14 31.5t16.5 47.5l21 67l121 381q5 15 8 31l6 33q0 3 10.5 5t23.5 2.5t23 0.5q11 0 11 -1l156 -472q19 -57 32.5 -88.5t26 -47t27 -20t35.5 -6.5q2 0 2 -8t-2 -8zM264 578q0 1 -2 1q-1 0 -1 -1 l-88 -289h184zM316 864l107 -170h-17l-122 119l-123 -119h-17l107 170h65z" />
<glyph unicode="&#xc3;" horiz-adv-x="600" d="M593 -2q-7 0 -21 0.5t-30 1t-32 0.5h-27q-23 0 -57 -0.5t-63 -1.5q-2 0 -2 8t2 8q27 3 41.5 8.5t19.5 19.5q2 6 2 15t-3 22q-5 24 -18 63l-38 116h-203q-27 -90 -40 -138t-13 -71q0 -22 11.5 -27.5t33.5 -7.5q2 0 2 -8t-2 -8q-15 1 -38 1.5t-46 0.5h-15q-6 0 -14 -0.5 t-18 -1t-24 -0.5q-2 0 -2 8t2 8q16 2 26.5 4.5t19.5 11.5q8 8 14.5 20t14 31.5t16.5 47.5l21 67l121 381q5 15 8 31l6 33q0 3 10.5 5t23.5 2.5t23 0.5q11 0 11 -1l156 -472q19 -57 32.5 -88.5t26 -47t27 -20t35.5 -6.5q2 0 2 -8t-2 -8zM264 578q0 1 -2 1q-1 0 -1 -1 l-88 -289h184zM359 712h-4q-19 0 -38 8q-20 9 -38 21l-36 20q-14 9 -27 9h-3q-23 -2 -35.5 -17.5t-19.5 -40.5h-21q2 20 8 38.5t16.5 33.5t25.5 24.5t35 10.5h4q19 0 37 -8q20 -10 39 -22l35 -20q17 -10 30 -9q45 3 55 58h21q-2 -19 -8 -38t-16 -33.5t-24.5 -24t-35.5 -10.5 z" />
<glyph unicode="&#xc4;" horiz-adv-x="600" d="M593 -2q-7 0 -21 0.5t-30 1t-32 0.5h-27q-23 0 -57 -0.5t-63 -1.5q-2 0 -2 8t2 8q27 3 41.5 8.5t19.5 19.5q2 6 2 15t-3 22q-5 24 -18 63l-38 116h-203q-27 -90 -40 -138t-13 -71q0 -22 11.5 -27.5t33.5 -7.5q2 0 2 -8t-2 -8q-15 1 -38 1.5t-46 0.5h-15q-6 0 -14 -0.5 t-18 -1t-24 -0.5q-2 0 -2 8t2 8q16 2 26.5 4.5t19.5 11.5q8 8 14.5 20t14 31.5t16.5 47.5l21 67l121 381q5 15 8 31l6 33q0 3 10.5 5t23.5 2.5t23 0.5q11 0 11 -1l156 -472q19 -57 32.5 -88.5t26 -47t27 -20t35.5 -6.5q2 0 2 -8t-2 -8zM264 578q0 1 -2 1q-1 0 -1 -1 l-88 -289h184zM438 762q0 -20 -15 -36t-36 -16q-20 0 -35 16t-15 36t15 36t35 16q21 0 36 -16t15 -36zM243 761q0 -20 -15 -35.5t-35 -15.5q-21 0 -36 15.5t-15 35.5t15 36t36 16q20 0 35 -16t15 -36z" />
<glyph unicode="&#xc5;" horiz-adv-x="600" d="M367 705q0 -27 -12 -47t-32 -31l149 -451q19 -57 32.5 -88.5t26 -47t27 -20t35.5 -6.5q2 0 2 -8t-2 -8q-7 0 -21 0.5t-30 1t-32 0.5h-27q-23 0 -57 -0.5t-63 -1.5q-2 0 -2 8t2 8q27 3 41.5 8.5t19.5 19.5q2 6 2 15t-3 22q-5 24 -18 63l-38 116h-203q-27 -90 -40 -138 t-13 -71q0 -22 11.5 -27.5t33.5 -7.5q2 0 2 -8t-2 -8q-15 1 -38 1.5t-46 0.5h-15q-6 0 -14 -0.5t-18 -1t-24 -0.5q-2 0 -2 8t2 8q16 2 26.5 4.5t19.5 11.5q8 8 14.5 20t14 31.5t16.5 47.5l21 67l121 381q4 11 6.5 23.5t4.5 24.5q-23 10 -35.5 31t-12.5 49q0 38 23.5 62.5 t61.5 24.5t61.5 -24.5t23.5 -62.5zM338 704q0 26 -15.5 44.5t-41.5 18.5t-40.5 -17.5t-14.5 -43.5t15.5 -44.5t41.5 -18.5t40.5 17.5t14.5 43.5zM264 578q0 1 -2 1q-1 0 -1 -1l-88 -289h184z" />
<glyph unicode="&#xc6;" horiz-adv-x="779" d="M743 160q-1 -12 -3.5 -32t-5.5 -41t-5.5 -41t-4.5 -33q-2 -11 -6 -14q-2 -2 -12 -2h-7q-35 2 -79 2.5t-95 0.5h-16h-42h-65l-66 -2h-46q-2 0 -2 8t2 8q23 2 38.5 4.5t23.5 10.5q11 11 14.5 34.5t3.5 72.5v122h-185l-85 -152q-26 -50 -26 -68q0 -15 9.5 -18.5t28.5 -5.5 q2 0 2 -8t-2 -8q-15 1 -38 1.5t-46 0.5h-30l-44 -2q-2 0 -2 8t2 8q20 2 33.5 6.5t27.5 18.5q17 17 39 53l61 104l208 353q12 21 17.5 32.5t5.5 19.5t-13 12.5t-53 8.5q-2 0 -2 8t2 8q29 -1 63 -1.5t57 -0.5h144q22 0 55.5 1t81.5 3q7 0 7 -7q1 -16 2 -36t1.5 -38.5t1 -33 t0.5 -19.5q0 -2 -6 -2.5t-6 0.5q-4 24 -11 43.5t-22 32.5t-41 20t-67 7h-78q-9 0 -11 -0.5t-2 -1.5v-269q5 -1 11 -1q5 0 12.5 0.5t16.5 1.5q73 2 108 4.5t47 14.5q8 8 10 22t7 39q1 2 7 2q7 0 7 -2q0 -4 -0.5 -15t-1 -24.5t-0.5 -27.5v-24v-23q0 -13 0.5 -26.5t1.5 -25.5 t2 -20q1 -3 -7.5 -3.5t-8.5 1.5q-3 19 -6 34.5t-13 25.5q-6 6 -16 10t-27.5 7t-44 4.5t-65.5 2.5l-40 1v-163q0 -28 0.5 -45.5t3 -28.5t6 -17.5t9.5 -12.5q20 -20 96 -20h16q38 0 61.5 7t39.5 23t25.5 41.5t18.5 61.5q1 3 9.5 2.5t8.5 -2.5zM370 500q0 48 -3 76l-165 -287 h168v211z" />
<glyph unicode="&#xc7;" horiz-adv-x="638" d="M605 162q-1 -10 -2.5 -30.5t-4 -41t-5.5 -37t-6 -18.5q-73 -52 -190 -52h-16l-20 -55h12q51 0 78.5 -21.5t27.5 -58.5q0 -19 -10 -34.5t-26.5 -26.5t-37 -17t-42.5 -6q-30 0 -55.5 14t-36.5 30q-2 2 3 6t6 3q12 -13 31 -23t45 -10q35 0 54 14.5t19 37.5q0 29 -23.5 42.5 t-61.5 13.5q-6 0 -11.5 -0.5t-10.5 -1.5l34 95q-69 7 -123.5 36t-93 74t-58.5 102.5t-20 120.5q0 64 22 124t64.5 107t104 75.5t140.5 28.5q29 0 54 -4t45 -9l35 -10q16 -4 26 -4q12 0 20 16q1 2 6.5 1.5t5.5 -2.5l5 -164q0 -2 -5 -3t-7 3q-32 76 -76.5 114.5t-110.5 38.5 q-55 0 -99 -23t-74.5 -64t-47 -98t-16.5 -125q0 -67 18.5 -124t52 -99t80.5 -66t104 -24q37 0 65 11t52 30q16 13 33 41t31 76q1 2 8.5 0.5t7.5 -3.5z" />
<glyph unicode="&#xc8;" horiz-adv-x="537" d="M501 160q-1 -12 -3.5 -32t-5.5 -41t-5.5 -41t-4.5 -33q-2 -11 -6 -14q-2 -2 -12 -2h-7q-35 2 -79 2.5t-95 0.5h-16h-42h-65l-66 -2h-46q-2 0 -2 8t2 8q27 2 43 5t24 13t10.5 30t2.5 56v400q0 36 -2.5 56t-10.5 30t-24 13t-43 5q-2 0 -2 8t2 8q29 -1 63 -1.5t57 -0.5h134 q22 0 55.5 1t81.5 3q7 0 7 -7q1 -16 2 -36t1.5 -38.5t1 -33t0.5 -19.5q0 -2 -6 -2.5t-6 0.5q-4 24 -11 43.5t-22 32.5t-41 20t-67 7h-78q-9 0 -11 -0.5t-2 -1.5v-269l40 1q39 1 66 2t44.5 2.5t27.5 4.5t16 9q8 8 11 23.5t7 38.5q0 2 7 2t7 -2q0 -4 -0.5 -15t-1 -24.5 t-0.5 -27.5v-24v-23q0 -13 0.5 -26.5t1.5 -25.5t2 -20q1 -3 -7.5 -3.5t-8.5 1.5q-4 21 -6.5 35.5t-12.5 24.5q-12 12 -46.5 17t-106.5 7l-40 1v-163q0 -28 0.5 -45.5t3 -28.5t6 -17.5t9.5 -12.5q20 -20 96 -20h16q38 0 61.5 7t39.5 23t25.5 41.5t18.5 61.5q1 3 9.5 2.5 t8.5 -2.5zM100 862h105l115 -163h-17z" />
<glyph unicode="&#xc9;" horiz-adv-x="537" d="M501 160q-1 -12 -3.5 -32t-5.5 -41t-5.5 -41t-4.5 -33q-2 -11 -6 -14q-2 -2 -12 -2h-7q-35 2 -79 2.5t-95 0.5h-16h-42h-65l-66 -2h-46q-2 0 -2 8t2 8q27 2 43 5t24 13t10.5 30t2.5 56v400q0 36 -2.5 56t-10.5 30t-24 13t-43 5q-2 0 -2 8t2 8q29 -1 63 -1.5t57 -0.5h134 q22 0 55.5 1t81.5 3q7 0 7 -7q1 -16 2 -36t1.5 -38.5t1 -33t0.5 -19.5q0 -2 -6 -2.5t-6 0.5q-4 24 -11 43.5t-22 32.5t-41 20t-67 7h-78q-9 0 -11 -0.5t-2 -1.5v-269l40 1q39 1 66 2t44.5 2.5t27.5 4.5t16 9q8 8 11 23.5t7 38.5q0 2 7 2t7 -2q0 -4 -0.5 -15t-1 -24.5 t-0.5 -27.5v-24v-23q0 -13 0.5 -26.5t1.5 -25.5t2 -20q1 -3 -7.5 -3.5t-8.5 1.5q-4 21 -6.5 35.5t-12.5 24.5q-12 12 -46.5 17t-106.5 7l-40 1v-163q0 -28 0.5 -45.5t3 -28.5t6 -17.5t9.5 -12.5q20 -20 96 -20h16q38 0 61.5 7t39.5 23t25.5 41.5t18.5 61.5q1 3 9.5 2.5 t8.5 -2.5zM223 699h-17l115 163h105z" />
<glyph unicode="&#xca;" horiz-adv-x="537" d="M501 160q-1 -12 -3.5 -32t-5.5 -41t-5.5 -41t-4.5 -33q-2 -11 -6 -14q-2 -2 -12 -2h-7q-35 2 -79 2.5t-95 0.5h-16h-42h-65l-66 -2h-46q-2 0 -2 8t2 8q27 2 43 5t24 13t10.5 30t2.5 56v400q0 36 -2.5 56t-10.5 30t-24 13t-43 5q-2 0 -2 8t2 8q29 -1 63 -1.5t57 -0.5h134 q22 0 55.5 1t81.5 3q7 0 7 -7q1 -16 2 -36t1.5 -38.5t1 -33t0.5 -19.5q0 -2 -6 -2.5t-6 0.5q-4 24 -11 43.5t-22 32.5t-41 20t-67 7h-78q-9 0 -11 -0.5t-2 -1.5v-269l40 1q39 1 66 2t44.5 2.5t27.5 4.5t16 9q8 8 11 23.5t7 38.5q0 2 7 2t7 -2q0 -4 -0.5 -15t-1 -24.5 t-0.5 -27.5v-24v-23q0 -13 0.5 -26.5t1.5 -25.5t2 -20q1 -3 -7.5 -3.5t-8.5 1.5q-4 21 -6.5 35.5t-12.5 24.5q-12 12 -46.5 17t-106.5 7l-40 1v-163q0 -28 0.5 -45.5t3 -28.5t6 -17.5t9.5 -12.5q20 -20 96 -20h16q38 0 61.5 7t39.5 23t25.5 41.5t18.5 61.5q1 3 9.5 2.5 t8.5 -2.5zM298 864l107 -170h-17l-122 119l-123 -119h-17l107 170h65z" />
<glyph unicode="&#xcb;" horiz-adv-x="537" d="M501 160q-1 -12 -3.5 -32t-5.5 -41t-5.5 -41t-4.5 -33q-2 -11 -6 -14q-2 -2 -12 -2h-7q-35 2 -79 2.5t-95 0.5h-16h-42h-65l-66 -2h-46q-2 0 -2 8t2 8q27 2 43 5t24 13t10.5 30t2.5 56v400q0 36 -2.5 56t-10.5 30t-24 13t-43 5q-2 0 -2 8t2 8q29 -1 63 -1.5t57 -0.5h134 q22 0 55.5 1t81.5 3q7 0 7 -7q1 -16 2 -36t1.5 -38.5t1 -33t0.5 -19.5q0 -2 -6 -2.5t-6 0.5q-4 24 -11 43.5t-22 32.5t-41 20t-67 7h-78q-9 0 -11 -0.5t-2 -1.5v-269l40 1q39 1 66 2t44.5 2.5t27.5 4.5t16 9q8 8 11 23.5t7 38.5q0 2 7 2t7 -2q0 -4 -0.5 -15t-1 -24.5 t-0.5 -27.5v-24v-23q0 -13 0.5 -26.5t1.5 -25.5t2 -20q1 -3 -7.5 -3.5t-8.5 1.5q-4 21 -6.5 35.5t-12.5 24.5q-12 12 -46.5 17t-106.5 7l-40 1v-163q0 -28 0.5 -45.5t3 -28.5t6 -17.5t9.5 -12.5q20 -20 96 -20h16q38 0 61.5 7t39.5 23t25.5 41.5t18.5 61.5q1 3 9.5 2.5 t8.5 -2.5zM413 762q0 -20 -15 -36t-36 -16q-20 0 -35 16t-15 36t15 36t35 16q21 0 36 -16t15 -36zM218 761q0 -20 -15 -35.5t-35 -15.5q-21 0 -36 15.5t-15 35.5t15 36t36 16q20 0 35 -16t15 -36z" />
<glyph unicode="&#xcc;" horiz-adv-x="345" d="M303 -2q-7 0 -23 0.5t-34.5 1t-37.5 0.5h-30h-30h-36l-36 -2h-33q-2 0 -2 8t2 8q29 2 47 3.5t27.5 11t12.5 30t3 59.5v400q0 39 -3 59.5t-12.5 30t-27.5 11.5t-47 3q-2 0 -2 8t2 8h33l36 -2h36h30h30q19 0 37.5 0.5t34.5 1t23 0.5q2 0 2 -8t-2 -8q-29 -3 -47 -5.5 t-27.5 -11.5t-13 -29t-3.5 -58v-400q0 -38 3.5 -58t13 -29t27.5 -11.5t47 -5.5q2 0 2 -8t-2 -8zM-2 861h105l115 -163h-17z" />
<glyph unicode="&#xcd;" horiz-adv-x="345" d="M303 -2q-7 0 -23 0.5t-34.5 1t-37.5 0.5h-30h-30h-36l-36 -2h-33q-2 0 -2 8t2 8q29 2 47 3.5t27.5 11t12.5 30t3 59.5v400q0 39 -3 59.5t-12.5 30t-27.5 11.5t-47 3q-2 0 -2 8t2 8h33l36 -2h36h30h30q19 0 37.5 0.5t34.5 1t23 0.5q2 0 2 -8t-2 -8q-29 -3 -47 -5.5 t-27.5 -11.5t-13 -29t-3.5 -58v-400q0 -38 3.5 -58t13 -29t27.5 -11.5t47 -5.5q2 0 2 -8t-2 -8zM160 699h-17l115 163h105z" />
<glyph unicode="&#xce;" horiz-adv-x="345" d="M303 -2q-7 0 -23 0.5t-34.5 1t-37.5 0.5h-30h-30h-36l-36 -2h-33q-2 0 -2 8t2 8q29 2 47 3.5t27.5 11t12.5 30t3 59.5v400q0 39 -3 59.5t-12.5 30t-27.5 11.5t-47 3q-2 0 -2 8t2 8h33l36 -2h36h30h30q19 0 37.5 0.5t34.5 1t23 0.5q2 0 2 -8t-2 -8q-29 -3 -47 -5.5 t-27.5 -11.5t-13 -29t-3.5 -58v-400q0 -38 3.5 -58t13 -29t27.5 -11.5t47 -5.5q2 0 2 -8t-2 -8zM205 864l107 -170h-17l-122 119l-123 -119h-17l107 170h65z" />
<glyph unicode="&#xcf;" horiz-adv-x="345" d="M303 -2q-7 0 -23 0.5t-34.5 1t-37.5 0.5h-30h-30h-36l-36 -2h-33q-2 0 -2 8t2 8q29 2 47 3.5t27.5 11t12.5 30t3 59.5v400q0 39 -3 59.5t-12.5 30t-27.5 11.5t-47 3q-2 0 -2 8t2 8h33l36 -2h36h30h30q19 0 37.5 0.5t34.5 1t23 0.5q2 0 2 -8t-2 -8q-29 -3 -47 -5.5 t-27.5 -11.5t-13 -29t-3.5 -58v-400q0 -38 3.5 -58t13 -29t27.5 -11.5t47 -5.5q2 0 2 -8t-2 -8zM320 762q0 -20 -15 -36t-36 -16q-20 0 -35 16t-15 36t15 36t35 16q21 0 36 -16t15 -36zM125 761q0 -20 -15 -35.5t-35 -15.5q-21 0 -36 15.5t-15 35.5t15 36t36 16q20 0 35 -16 t15 -36z" />
<glyph unicode="&#xd1;" horiz-adv-x="722" d="M608 -2q0 -2 -4.5 -3t-10.5 -1q-3 -1 -5.5 -1t-5.5 1q-5 0 -6 1l-415 572h-1l1 -397q0 -54 1 -84.5t8.5 -46t23.5 -20t46 -7.5q2 0 2 -8t-2 -8q-29 1 -50 2.5t-44 1.5t-47 -2l-39 -2q-2 0 -2 8t2 8q24 3 37.5 7t20.5 19.5t8.5 46.5t1.5 88v335q0 42 -3 63.5t-14 32.5 q-9 9 -24 12.5t-39 5.5q-2 0 -2 8t2 8q29 -1 53.5 -1.5t40.5 -0.5h15q11 0 22.5 0.5t21.5 0.5h13q9 -17 19 -33.5t24 -36.5l314 -433h1l-1 330q0 54 -1 84.5t-8.5 46t-23.5 20t-46 7.5q-2 0 -2 8t2 8q29 -1 50 -2.5t44 -1.5t47 2l39 2q2 0 2 -8t-2 -8q-24 -3 -37.5 -7 t-20.5 -19.5t-8.5 -46.5t-1.5 -88v-320v-29l2 -40v-41q1 -20 2 -33zM430 712h-4q-19 0 -38 8q-20 9 -38 21l-36 20q-14 9 -27 9h-3q-23 -2 -35.5 -17.5t-19.5 -40.5h-21q2 20 8 38.5t16.5 33.5t25.5 24.5t35 10.5h4q19 0 37 -8q20 -10 39 -22l35 -20q17 -10 30 -9 q45 3 55 58h21q-2 -19 -8 -38t-16 -33.5t-24.5 -24t-35.5 -10.5z" />
<glyph unicode="&#xd2;" d="M721 320q0 -63 -22.5 -124t-65 -108t-105 -76t-143.5 -29t-143 28.5t-104 75.5t-64 107.5t-22 123.5t22 123.5t65 107.5t105 76t143 29t143 -28.5t104.5 -75.5t64.5 -107t22 -123zM628 318q0 67 -17.5 124t-49.5 99t-76.5 66t-99.5 24q-56 0 -100.5 -23t-75.5 -64.5 t-47.5 -98.5t-16.5 -125q0 -67 17.5 -124t49 -99t76 -66t99.5 -24q56 0 100.5 23t76 64.5t48 98.5t16.5 125zM211 862h105l115 -163h-17z" />
<glyph unicode="&#xd3;" d="M721 320q0 -63 -22.5 -124t-65 -108t-105 -76t-143.5 -29t-143 28.5t-104 75.5t-64 107.5t-22 123.5t22 123.5t65 107.5t105 76t143 29t143 -28.5t104.5 -75.5t64.5 -107t22 -123zM628 318q0 67 -17.5 124t-49.5 99t-76.5 66t-99.5 24q-56 0 -100.5 -23t-75.5 -64.5 t-47.5 -98.5t-16.5 -125q0 -67 17.5 -124t49 -99t76 -66t99.5 -24q56 0 100.5 23t76 64.5t48 98.5t16.5 125zM374 699h-17l115 163h105z" />
<glyph unicode="&#xd4;" d="M721 320q0 -63 -22.5 -124t-65 -108t-105 -76t-143.5 -29t-143 28.5t-104 75.5t-64 107.5t-22 123.5t22 123.5t65 107.5t105 76t143 29t143 -28.5t104.5 -75.5t64.5 -107t22 -123zM628 318q0 67 -17.5 124t-49.5 99t-76.5 66t-99.5 24q-56 0 -100.5 -23t-75.5 -64.5 t-47.5 -98.5t-16.5 -125q0 -67 17.5 -124t49 -99t76 -66t99.5 -24q56 0 100.5 23t76 64.5t48 98.5t16.5 125zM419 864l107 -170h-17l-122 119l-123 -119h-17l107 170h65z" />
<glyph unicode="&#xd5;" d="M721 320q0 -63 -22.5 -124t-65 -108t-105 -76t-143.5 -29t-143 28.5t-104 75.5t-64 107.5t-22 123.5t22 123.5t65 107.5t105 76t143 29t143 -28.5t104.5 -75.5t64.5 -107t22 -123zM628 318q0 67 -17.5 124t-49.5 99t-76.5 66t-99.5 24q-56 0 -100.5 -23t-75.5 -64.5 t-47.5 -98.5t-16.5 -125q0 -67 17.5 -124t49 -99t76 -66t99.5 -24q56 0 100.5 23t76 64.5t48 98.5t16.5 125zM455 712h-4q-19 0 -38 8q-20 9 -38 21l-36 20q-14 9 -27 9h-3q-23 -2 -35.5 -17.5t-19.5 -40.5h-21q2 20 8 38.5t16.5 33.5t25.5 24.5t35 10.5h4q19 0 37 -8 q20 -10 39 -22l35 -20q17 -10 30 -9q45 3 55 58h21q-2 -19 -8 -38t-16 -33.5t-24.5 -24t-35.5 -10.5z" />
<glyph unicode="&#xd6;" d="M721 320q0 -63 -22.5 -124t-65 -108t-105 -76t-143.5 -29t-143 28.5t-104 75.5t-64 107.5t-22 123.5t22 123.5t65 107.5t105 76t143 29t143 -28.5t104.5 -75.5t64.5 -107t22 -123zM628 318q0 67 -17.5 124t-49.5 99t-76.5 66t-99.5 24q-56 0 -100.5 -23t-75.5 -64.5 t-47.5 -98.5t-16.5 -125q0 -67 17.5 -124t49 -99t76 -66t99.5 -24q56 0 100.5 23t76 64.5t48 98.5t16.5 125zM534 762q0 -20 -15 -36t-36 -16q-20 0 -35 16t-15 36t15 36t35 16q21 0 36 -16t15 -36zM339 761q0 -20 -15 -35.5t-35 -15.5q-21 0 -36 15.5t-15 35.5t15 36t36 16 q20 0 35 -16t15 -36z" />
<glyph unicode="&#xd8;" d="M721 320q0 -63 -22.5 -123.5t-65 -107t-105 -75t-143.5 -28.5q-54 0 -99.5 13t-82.5 36l-88 -125q0 -1 -3.5 1t-7 4.5t-6 5t-1.5 3.5l87 123q-66 48 -99 120t-33 151q0 63 22 123t65 106.5t105 75t143 28.5q55 0 101 -13.5t83 -36.5l77 109q0 1 3.5 -1t7 -4.5t6 -5 t1.5 -3.5l-76 -108q65 -48 98 -119t33 -149zM546 565q-29 30 -69.5 46.5t-91.5 16.5q-56 0 -100.5 -22.5t-75.5 -63.5t-47.5 -97.5t-16.5 -124.5q0 -148 67 -232zM628 318q0 146 -66 229l-334 -476q30 -29 69.5 -45t89.5 -16q56 0 100.5 22.5t76 63.5t48 97.5t16.5 124.5z " />
<glyph unicode="&#xd9;" horiz-adv-x="691" d="M653 622q-24 -3 -37.5 -7t-20.5 -19.5t-8.5 -46.5t-1.5 -88v-224q0 -58 -14 -105t-42.5 -80.5t-71.5 -51.5t-102 -18q-128 0 -186.5 60.5t-58.5 185.5v280q0 39 -3 60.5t-11.5 32.5t-24 14.5t-41.5 6.5q-2 0 -2 8t2 8q29 -1 63 -1.5t57 -0.5h28q18 0 36 0.5t33.5 1 t22.5 0.5q2 0 2 -8t-2 -8q-26 -3 -42 -7t-24.5 -15t-11.5 -32.5t-3 -59.5v-275q0 -48 8.5 -87t30 -66t58 -41.5t91.5 -14.5q45 0 78.5 16t55.5 44t32.5 67t10.5 85l-2 228q0 54 -1.5 84.5t-8.5 46t-23 20t-46 7.5q-2 0 -2 8t2 8q29 -1 50 -2.5t44 -1.5t47 2l39 2q2 0 2 -8 t-2 -8zM200 862h105l115 -163h-17z" />
<glyph unicode="&#xda;" horiz-adv-x="691" d="M653 622q-24 -3 -37.5 -7t-20.5 -19.5t-8.5 -46.5t-1.5 -88v-224q0 -58 -14 -105t-42.5 -80.5t-71.5 -51.5t-102 -18q-128 0 -186.5 60.5t-58.5 185.5v280q0 39 -3 60.5t-11.5 32.5t-24 14.5t-41.5 6.5q-2 0 -2 8t2 8q29 -1 63 -1.5t57 -0.5h28q18 0 36 0.5t33.5 1 t22.5 0.5q2 0 2 -8t-2 -8q-26 -3 -42 -7t-24.5 -15t-11.5 -32.5t-3 -59.5v-275q0 -48 8.5 -87t30 -66t58 -41.5t91.5 -14.5q45 0 78.5 16t55.5 44t32.5 67t10.5 85l-2 228q0 54 -1.5 84.5t-8.5 46t-23 20t-46 7.5q-2 0 -2 8t2 8q29 -1 50 -2.5t44 -1.5t47 2l39 2q2 0 2 -8 t-2 -8zM353 699h-17l115 163h105z" />
<glyph unicode="&#xdb;" horiz-adv-x="691" d="M653 622q-24 -3 -37.5 -7t-20.5 -19.5t-8.5 -46.5t-1.5 -88v-224q0 -58 -14 -105t-42.5 -80.5t-71.5 -51.5t-102 -18q-128 0 -186.5 60.5t-58.5 185.5v280q0 39 -3 60.5t-11.5 32.5t-24 14.5t-41.5 6.5q-2 0 -2 8t2 8q29 -1 63 -1.5t57 -0.5h28q18 0 36 0.5t33.5 1 t22.5 0.5q2 0 2 -8t-2 -8q-26 -3 -42 -7t-24.5 -15t-11.5 -32.5t-3 -59.5v-275q0 -48 8.5 -87t30 -66t58 -41.5t91.5 -14.5q45 0 78.5 16t55.5 44t32.5 67t10.5 85l-2 228q0 54 -1.5 84.5t-8.5 46t-23 20t-46 7.5q-2 0 -2 8t2 8q29 -1 50 -2.5t44 -1.5t47 2l39 2q2 0 2 -8 t-2 -8zM398 864l107 -170h-17l-122 119l-123 -119h-17l107 170h65z" />
<glyph unicode="&#xdc;" horiz-adv-x="691" d="M653 622q-24 -3 -37.5 -7t-20.5 -19.5t-8.5 -46.5t-1.5 -88v-224q0 -58 -14 -105t-42.5 -80.5t-71.5 -51.5t-102 -18q-128 0 -186.5 60.5t-58.5 185.5v280q0 39 -3 60.5t-11.5 32.5t-24 14.5t-41.5 6.5q-2 0 -2 8t2 8q29 -1 63 -1.5t57 -0.5h28q18 0 36 0.5t33.5 1 t22.5 0.5q2 0 2 -8t-2 -8q-26 -3 -42 -7t-24.5 -15t-11.5 -32.5t-3 -59.5v-275q0 -48 8.5 -87t30 -66t58 -41.5t91.5 -14.5q45 0 78.5 16t55.5 44t32.5 67t10.5 85l-2 228q0 54 -1.5 84.5t-8.5 46t-23 20t-46 7.5q-2 0 -2 8t2 8q29 -1 50 -2.5t44 -1.5t47 2l39 2q2 0 2 -8 t-2 -8zM493 762q0 -20 -15 -36t-36 -16q-20 0 -35 16t-15 36t15 36t35 16q21 0 36 -16t15 -36zM298 761q0 -20 -15 -35.5t-35 -15.5q-21 0 -36 15.5t-15 35.5t15 36t36 16q20 0 35 -16t15 -36z" />
<glyph unicode="&#xdd;" horiz-adv-x="568" d="M582 622q-25 -2 -43 -12t-32 -25.5t-25 -35.5l-26 -44l-117 -212v-175q0 -36 2.5 -56.5t11.5 -30.5t27.5 -12.5t49.5 -4.5q2 0 2 -8t-2 -8q-7 0 -23 0.5t-34.5 1t-37.5 0.5h-30h-30h-35l-38 -2h-32q-2 0 -2 8t2 8q32 2 50 4.5t27 12.5t11 30.5t2 56.5v157l-150 257 q-16 27 -27.5 43.5t-22.5 26t-24.5 14t-33.5 6.5q-2 0 -2 8t2 8q8 0 20.5 -0.5t27.5 -1t30 -0.5h27q23 0 52 0.5t58 1.5q2 0 2 -8t-2 -8q-26 -2 -37 -7t-11 -16q0 -13 19 -46l134 -230l121 225q8 16 12.5 27t4.5 20q0 23 -48 27q-2 0 -2 8t2 8q15 -1 42 -1.5t50 -0.5 q16 0 32.5 0.5t45.5 1.5q2 0 2 -8t-2 -8zM212 699h-17l115 163h105z" />
<glyph unicode="&#xde;" horiz-adv-x="525" d="M207 507q20 1 43 2t38 1q47 0 86.5 -11t68 -33t44.5 -53t16 -72q0 -40 -18.5 -77t-51 -64t-77.5 -40q-30 -9 -64 -9q-16 0 -33 2q-4 1 -4 8q0 8 4 8q48 0 79.5 11.5t50.5 32t27 48.5t8 60q0 45 -18 79t-48.5 55t-69.5 28q-18 3 -37 3q-22 0 -44 -4v-364q0 -36 2.5 -56 t11 -30t24.5 -13t43 -5q2 0 2 -8t-2 -8q-7 0 -21.5 0.5t-31 1t-33.5 0.5h-29q-25 0 -60.5 -0.5t-64.5 -1.5q-2 0 -2 8t2 8q27 2 43 5t24 13t10.5 30t2.5 56v400q0 36 -2.5 56t-10.5 30t-24 13t-43 5q-2 0 -2 8t2 8q29 -1 64.5 -1.5t60.5 -0.5h29q17 0 33.5 0.5t31 1 t21.5 0.5q2 0 2 -8t-2 -8q-27 -2 -43 -5t-24.5 -13t-11 -30t-2.5 -56v-11z" />
<glyph unicode="&#xdf;" horiz-adv-x="582" d="M562 116q0 -25 -9.5 -48t-28 -41t-47 -28.5t-66.5 -10.5q-43 0 -76 11t-58 24q-1 1 -2.5 5t-2.5 15t-2 32t-2 55q0 2 6 2.5t7 -1.5q23 -52 57.5 -86.5t79.5 -34.5q41 0 62.5 20.5t21.5 52.5q0 27 -16.5 46.5t-41.5 35t-54.5 29.5t-54.5 31.5t-41.5 39.5t-16.5 54 q0 24 8.5 43t22 35.5t30 31t32.5 30.5q21 21 36 45.5t15 59.5q0 27 -8.5 50t-24.5 40t-39.5 27t-53.5 10q-58 0 -88 -52.5t-30 -162.5v-348q0 -38 2 -59.5t8 -33t16.5 -15.5t26.5 -6q2 0 2 -8t-2 -8q-22 1 -40.5 1.5t-43.5 0.5t-56.5 -0.5t-53.5 -1.5q-2 0 -2 8t2 8 q22 3 35.5 7t21 15t10 32t2.5 60v267h-82q-2 0 -2 6t2 7q52 16 69 33q9 8 12 17.5t4 22.5q3 64 23.5 111t52.5 77.5t72.5 45t84.5 14.5q30 0 57.5 -10t49 -29t34.5 -45.5t13 -58.5q0 -24 -11.5 -45.5t-29 -41t-38 -38t-38.5 -36.5q-17 -17 -29 -35t-12 -38q0 -25 16.5 -42 t41.5 -31.5t54.5 -28t54.5 -31.5t41.5 -42.5t16.5 -60.5z" />
<glyph unicode="&#xe0;" horiz-adv-x="461" d="M428 8q-21 -22 -60 -22q-30 0 -51 20.5t-27 46.5q-17 -31 -49 -49t-73 -18q-23 0 -44.5 8.5t-38 22.5t-26 34t-9.5 42q0 67 59 108.5t183 44.5l1 26v8q0 49 -25 79q-26 32 -80 32q-35 0 -66.5 -19.5t-53.5 -48.5q-2 -2 -6 2t-3 7q8 22 24 42t37.5 35.5t47.5 24.5t53 9 q66 0 107 -43q38 -40 38 -112v-7l-4 -189v-5q0 -32 11 -44q12 -13 28 -13q20 0 32 13.5t20 26.5q1 2 3 -3q2 -4 2 -6q0 -4 -9.5 -21.5t-20.5 -31.5zM292 227q-55 -2 -89.5 -15.5t-54.5 -33.5q-13 -13 -19 -29.5t-6 -33.5q0 -38 23 -61.5t58 -23.5q23 0 41.5 10t33.5 25 q3 3 6.5 8t3.5 8zM70 651h105l115 -163h-17z" />
<glyph unicode="&#xe1;" horiz-adv-x="461" d="M428 8q-21 -22 -60 -22q-30 0 -51 20.5t-27 46.5q-17 -31 -49 -49t-73 -18q-23 0 -44.5 8.5t-38 22.5t-26 34t-9.5 42q0 67 59 108.5t183 44.5l1 26v8q0 49 -25 79q-26 32 -80 32q-35 0 -66.5 -19.5t-53.5 -48.5q-2 -2 -6 2t-3 7q8 22 24 42t37.5 35.5t47.5 24.5t53 9 q66 0 107 -43q38 -40 38 -112v-7l-4 -189v-5q0 -32 11 -44q12 -13 28 -13q20 0 32 13.5t20 26.5q1 2 3 -3q2 -4 2 -6q0 -4 -9.5 -21.5t-20.5 -31.5zM292 227q-55 -2 -89.5 -15.5t-54.5 -33.5q-13 -13 -19 -29.5t-6 -33.5q0 -38 23 -61.5t58 -23.5q23 0 41.5 10t33.5 25 q3 3 6.5 8t3.5 8zM163 488h-17l115 163h105z" />
<glyph unicode="&#xe2;" horiz-adv-x="461" d="M428 8q-21 -22 -60 -22q-30 0 -51 20.5t-27 46.5q-17 -31 -49 -49t-73 -18q-23 0 -44.5 8.5t-38 22.5t-26 34t-9.5 42q0 67 59 108.5t183 44.5l1 26v8q0 49 -25 79q-26 32 -80 32q-35 0 -66.5 -19.5t-53.5 -48.5q-2 -2 -6 2t-3 7q8 22 24 42t37.5 35.5t47.5 24.5t53 9 q66 0 107 -43q38 -40 38 -112v-7l-4 -189v-5q0 -32 11 -44q12 -13 28 -13q20 0 32 13.5t20 26.5q1 2 3 -3q2 -4 2 -6q0 -4 -9.5 -21.5t-20.5 -31.5zM292 227q-55 -2 -89.5 -15.5t-54.5 -33.5q-13 -13 -19 -29.5t-6 -33.5q0 -38 23 -61.5t58 -23.5q23 0 41.5 10t33.5 25 q3 3 6.5 8t3.5 8zM244 653l107 -170h-17l-122 119l-123 -119h-17l107 170h65z" />
<glyph unicode="&#xe3;" horiz-adv-x="461" d="M428 8q-21 -22 -60 -22q-30 0 -51 20.5t-27 46.5q-17 -31 -49 -49t-73 -18q-23 0 -44.5 8.5t-38 22.5t-26 34t-9.5 42q0 67 59 108.5t183 44.5l1 26v8q0 49 -25 79q-26 32 -80 32q-35 0 -66.5 -19.5t-53.5 -48.5q-2 -2 -6 2t-3 7q8 22 24 42t37.5 35.5t47.5 24.5t53 9 q66 0 107 -43q38 -40 38 -112v-7l-4 -189v-5q0 -32 11 -44q12 -13 28 -13q20 0 32 13.5t20 26.5q1 2 3 -3q2 -4 2 -6q0 -4 -9.5 -21.5t-20.5 -31.5zM292 227q-55 -2 -89.5 -15.5t-54.5 -33.5q-13 -13 -19 -29.5t-6 -33.5q0 -38 23 -61.5t58 -23.5q23 0 41.5 10t33.5 25 q3 3 6.5 8t3.5 8zM289 501h-4q-19 0 -38 8q-20 9 -38 21l-36 20q-14 9 -27 9h-3q-23 -2 -35.5 -17.5t-19.5 -40.5h-21q2 20 8 38.5t16.5 33.5t25.5 24.5t35 10.5h4q19 0 37 -8q20 -10 39 -22l35 -20q17 -10 30 -9q45 3 55 58h21q-2 -19 -8 -38t-16 -33.5t-24.5 -24 t-35.5 -10.5z" />
<glyph unicode="&#xe4;" horiz-adv-x="461" d="M428 8q-21 -22 -60 -22q-30 0 -51 20.5t-27 46.5q-17 -31 -49 -49t-73 -18q-23 0 -44.5 8.5t-38 22.5t-26 34t-9.5 42q0 67 59 108.5t183 44.5l1 26v8q0 49 -25 79q-26 32 -80 32q-35 0 -66.5 -19.5t-53.5 -48.5q-2 -2 -6 2t-3 7q8 22 24 42t37.5 35.5t47.5 24.5t53 9 q66 0 107 -43q38 -40 38 -112v-7l-4 -189v-5q0 -32 11 -44q12 -13 28 -13q20 0 32 13.5t20 26.5q1 2 3 -3q2 -4 2 -6q0 -4 -9.5 -21.5t-20.5 -31.5zM292 227q-55 -2 -89.5 -15.5t-54.5 -33.5q-13 -13 -19 -29.5t-6 -33.5q0 -38 23 -61.5t58 -23.5q23 0 41.5 10t33.5 25 q3 3 6.5 8t3.5 8zM366 551q0 -20 -15 -36t-36 -16q-20 0 -35 16t-15 36t15 36t35 16q21 0 36 -16t15 -36zM171 550q0 -20 -15 -35.5t-35 -15.5q-21 0 -36 15.5t-15 35.5t15 36t36 16q20 0 35 -16t15 -36z" />
<glyph unicode="&#xe5;" horiz-adv-x="461" d="M428 8q-21 -22 -60 -22q-30 0 -51 20.5t-27 46.5q-17 -31 -49 -49t-73 -18q-23 0 -44.5 8.5t-38 22.5t-26 34t-9.5 42q0 67 59 108.5t183 44.5l1 26v8q0 49 -25 79q-26 32 -80 32q-35 0 -66.5 -19.5t-53.5 -48.5q-2 -2 -6 2t-3 7q8 22 24 42t37.5 35.5t47.5 24.5t53 9 q66 0 107 -43q38 -40 38 -112v-7l-4 -189v-5q0 -32 11 -44q12 -13 28 -13q20 0 32 13.5t20 26.5q1 2 3 -3q2 -4 2 -6q0 -4 -9.5 -21.5t-20.5 -31.5zM292 227q-55 -2 -89.5 -15.5t-54.5 -33.5q-13 -13 -19 -29.5t-6 -33.5q0 -38 23 -61.5t58 -23.5q23 0 41.5 10t33.5 25 q3 3 6.5 8t3.5 8zM311 594q0 -38 -23.5 -62.5t-61.5 -24.5t-61.5 24.5t-23.5 62.5t23.5 62.5t61.5 24.5t61.5 -24.5t23.5 -62.5zM282 593q0 26 -15.5 44.5t-41.5 18.5t-40.5 -17.5t-14.5 -43.5t15.5 -44.5t41.5 -18.5t40.5 17.5t14.5 43.5z" />
<glyph unicode="&#xe6;" horiz-adv-x="707" d="M668 118q-8 -27 -25.5 -51t-41.5 -42t-52.5 -28.5t-59.5 -10.5q-60 0 -106 27t-72 73q-32 -54 -69 -77t-84 -23q-23 0 -44.5 8.5t-38 22.5t-26 34t-9.5 42q0 67 59 108.5t183 44.5l1 25v8q0 49 -25 78q-26 31 -80 31q-35 0 -67.5 -19t-52.5 -46q-2 -2 -6 2t-3 7 q7 18 22 37t36 35t47.5 26t56.5 10q89 0 125 -73q28 33 67.5 53t89.5 20q36 0 67 -11.5t55 -33t38.5 -51.5t17.5 -66v-27h-309q-1 -8 -1.5 -16.5t-0.5 -16.5q0 -39 12 -72.5t32.5 -58t48.5 -38.5t59 -14q48 0 85.5 24t61.5 62q2 3 6 1.5t3 -4.5zM583 276v21q0 30 -8 52 t-21.5 36.5t-31 22t-36.5 7.5q-49 0 -80 -39t-41 -100h218zM281 227q-56 -3 -89.5 -16.5t-53.5 -33.5q-14 -14 -19.5 -29.5t-5.5 -32.5q0 -38 23 -61.5t58 -23.5q26 0 55.5 19.5t51.5 55.5q-21 47 -21 105v8q0 4 1 9z" />
<glyph unicode="&#xe7;" horiz-adv-x="476" d="M222 -15q-39 6 -71.5 25.5t-56.5 49t-37.5 68t-13.5 82.5q0 52 17 95t46.5 73.5t69.5 47.5t86 17q24 0 44.5 -4.5t36.5 -10.5t27 -10.5t16 -4.5q15 0 20 22q0 2 8 2t8 -2v-142q0 -2 -7 -2q-6 0 -7 2q-10 25 -25 48t-34 41t-41.5 28.5t-46.5 10.5q-31 0 -56.5 -16 t-43.5 -44t-28 -64.5t-10 -78.5t12 -77t33 -59.5t49.5 -38.5t61.5 -14q48 0 86 26.5t61 65.5q5 7 8 4q1 -2 1 -5q0 -4 -8.5 -23t-17.5 -33q-17 -24 -41 -42t-52.5 -28.5t-60.5 -10.5h-8l-20 -55h12q51 0 78.5 -21.5t27.5 -58.5q0 -19 -10 -34.5t-26.5 -26.5t-37 -17 t-42.5 -6q-30 0 -55.5 14t-36.5 30q-2 2 3 6t6 3q12 -13 31 -23t45 -10q35 0 54 14.5t19 37.5q0 29 -23.5 42.5t-61.5 13.5q-6 0 -11.5 -0.5t-10.5 -1.5z" />
<glyph unicode="&#xe8;" horiz-adv-x="475" d="M130 251q-1 -8 -1.5 -16.5t-0.5 -16.5q0 -39 12 -73t32.5 -59t48.5 -39.5t59 -14.5q48 0 85.5 25.5t61.5 63.5q2 3 6 1.5t3 -4.5q-8 -27 -25.5 -51.5t-41.5 -43t-52.5 -29.5t-59.5 -11q-46 0 -85.5 17t-68 47.5t-44.5 72t-16 90.5q0 45 16 87t44.5 74.5t69 52t88.5 19.5 q36 0 67 -11.5t55 -33t38.5 -51.5t17.5 -66v-30h-309zM351 276v24q0 30 -8 52t-21.5 36.5t-31 22t-36.5 7.5q-49 0 -80 -40t-41 -102h218zM110 651h105l115 -163h-17z" />
<glyph unicode="&#xe9;" horiz-adv-x="475" d="M130 251q-1 -8 -1.5 -16.5t-0.5 -16.5q0 -39 12 -73t32.5 -59t48.5 -39.5t59 -14.5q48 0 85.5 25.5t61.5 63.5q2 3 6 1.5t3 -4.5q-8 -27 -25.5 -51.5t-41.5 -43t-52.5 -29.5t-59.5 -11q-46 0 -85.5 17t-68 47.5t-44.5 72t-16 90.5q0 45 16 87t44.5 74.5t69 52t88.5 19.5 q36 0 67 -11.5t55 -33t38.5 -51.5t17.5 -66v-30h-309zM351 276v24q0 30 -8 52t-21.5 36.5t-31 22t-36.5 7.5q-49 0 -80 -40t-41 -102h218zM198 488h-17l115 163h105z" />
<glyph unicode="&#xea;" horiz-adv-x="475" d="M130 251q-1 -8 -1.5 -16.5t-0.5 -16.5q0 -39 12 -73t32.5 -59t48.5 -39.5t59 -14.5q48 0 85.5 25.5t61.5 63.5q2 3 6 1.5t3 -4.5q-8 -27 -25.5 -51.5t-41.5 -43t-52.5 -29.5t-59.5 -11q-46 0 -85.5 17t-68 47.5t-44.5 72t-16 90.5q0 45 16 87t44.5 74.5t69 52t88.5 19.5 q36 0 67 -11.5t55 -33t38.5 -51.5t17.5 -66v-30h-309zM351 276v24q0 30 -8 52t-21.5 36.5t-31 22t-36.5 7.5q-49 0 -80 -40t-41 -102h218zM274 653l107 -170h-17l-122 119l-123 -119h-17l107 170h65z" />
<glyph unicode="&#xeb;" horiz-adv-x="475" d="M130 251q-1 -8 -1.5 -16.5t-0.5 -16.5q0 -39 12 -73t32.5 -59t48.5 -39.5t59 -14.5q48 0 85.5 25.5t61.5 63.5q2 3 6 1.5t3 -4.5q-8 -27 -25.5 -51.5t-41.5 -43t-52.5 -29.5t-59.5 -11q-46 0 -85.5 17t-68 47.5t-44.5 72t-16 90.5q0 45 16 87t44.5 74.5t69 52t88.5 19.5 q36 0 67 -11.5t55 -33t38.5 -51.5t17.5 -66v-30h-309zM351 276v24q0 30 -8 52t-21.5 36.5t-31 22t-36.5 7.5q-49 0 -80 -40t-41 -102h218zM393 551q0 -20 -15 -36t-36 -16q-20 0 -35 16t-15 36t15 36t35 16q21 0 36 -16t15 -36zM198 550q0 -20 -15 -35.5t-35 -15.5 q-21 0 -36 15.5t-15 35.5t15 36t36 16q20 0 35 -16t15 -36z" />
<glyph unicode="&#xec;" horiz-adv-x="287" d="M250 -2q-22 1 -48.5 1.5t-51.5 0.5t-55 -0.5t-52 -1.5q-2 0 -2 8t2 8q21 3 34 7t20 15t9.5 32t2.5 60v169q0 39 -3 60t-11 31.5t-22 14t-35 6.5q-2 0 -2 8t2 8h143v-297q0 -38 3 -59.5t10.5 -32.5t21 -15t34.5 -7q2 0 2 -8t-2 -8zM-31 651h105l115 -163h-17z" />
<glyph unicode="&#xed;" horiz-adv-x="287" d="M250 -2q-22 1 -48.5 1.5t-51.5 0.5t-55 -0.5t-52 -1.5q-2 0 -2 8t2 8q21 3 34 7t20 15t9.5 32t2.5 60v169q0 39 -3 60t-11 31.5t-22 14t-35 6.5q-2 0 -2 8t2 8h143v-297q0 -38 3 -59.5t10.5 -32.5t21 -15t34.5 -7q2 0 2 -8t-2 -8zM72 488h-17l115 163h105z" />
<glyph unicode="&#xee;" horiz-adv-x="287" d="M250 -2q-22 1 -48.5 1.5t-51.5 0.5t-55 -0.5t-52 -1.5q-2 0 -2 8t2 8q21 3 34 7t20 15t9.5 32t2.5 60v169q0 39 -3 60t-11 31.5t-22 14t-35 6.5q-2 0 -2 8t2 8h143v-297q0 -38 3 -59.5t10.5 -32.5t21 -15t34.5 -7q2 0 2 -8t-2 -8zM177 653l107 -170h-17l-122 119 l-123 -119h-17l107 170h65z" />
<glyph unicode="&#xef;" horiz-adv-x="287" d="M250 -2q-22 1 -48.5 1.5t-51.5 0.5t-55 -0.5t-52 -1.5q-2 0 -2 8t2 8q21 3 34 7t20 15t9.5 32t2.5 60v169q0 39 -3 60t-11 31.5t-22 14t-35 6.5q-2 0 -2 8t2 8h143v-297q0 -38 3 -59.5t10.5 -32.5t21 -15t34.5 -7q2 0 2 -8t-2 -8zM292 551q0 -20 -15 -36t-36 -16 q-20 0 -35 16t-15 36t15 36t35 16q21 0 36 -16t15 -36zM97 550q0 -20 -15 -35.5t-35 -15.5q-21 0 -36 15.5t-15 35.5t15 36t36 16q20 0 35 -16t15 -36z" />
<glyph unicode="&#xf1;" horiz-adv-x="576" d="M557 -2q-22 1 -48.5 1.5t-51.5 0.5t-55 -0.5t-52 -1.5q-2 0 -2 8t2 8q21 3 34 7t20 15t9.5 32t2.5 60v138q0 54 -26.5 87t-77.5 33q-26 0 -49.5 -10t-40.5 -27t-27 -41t-10 -51v-129q0 -38 3 -59.5t10.5 -32.5t21 -15t34.5 -7q2 0 2 -8t-2 -8q-22 1 -48.5 1.5t-51.5 0.5 t-55 -0.5t-52 -1.5q-2 0 -2 8t2 8q21 3 34 7t20 15t9.5 32t2.5 60v169q0 39 -3 60t-11 31.5t-22 14t-35 6.5q-2 0 -2 8t2 8h141v-102h2q11 23 26.5 43.5t36 36.5t45.5 25t53 9q63 0 102.5 -43t39.5 -125v-141q0 -38 3 -59.5t10.5 -32.5t21 -15t34.5 -7q2 0 2 -8t-2 -8z M357 501h-4q-19 0 -38 8q-20 9 -38 21l-36 20q-14 9 -27 9h-3q-23 -2 -35.5 -17.5t-19.5 -40.5h-21q2 20 8 38.5t16.5 33.5t25.5 24.5t35 10.5h4q19 0 37 -8q20 -10 39 -22l35 -20q17 -10 30 -9q45 3 55 58h21q-2 -19 -8 -38t-16 -33.5t-24.5 -24t-35.5 -10.5z" />
<glyph unicode="&#xf2;" horiz-adv-x="532" d="M487 213q0 -48 -15.5 -89.5t-44.5 -72t-69.5 -48t-91.5 -17.5q-54 0 -95.5 17.5t-69.5 48t-42 72t-14 89.5t15.5 89.5t44.5 72t69.5 48t91.5 17.5q54 0 95.5 -17.5t69.5 -48t42 -72t14 -89.5zM402 205q0 42 -8.5 80t-25.5 67t-42.5 46t-59.5 17t-59.5 -14.5t-42.5 -40.5 t-25.5 -61.5t-8.5 -77.5t8.5 -80t25.5 -67.5t42.5 -46.5t59.5 -17t59.5 14.5t42.5 41t25.5 62t8.5 77.5zM111 651h105l115 -163h-17z" />
<glyph unicode="&#xf3;" horiz-adv-x="532" d="M487 213q0 -48 -15.5 -89.5t-44.5 -72t-69.5 -48t-91.5 -17.5q-54 0 -95.5 17.5t-69.5 48t-42 72t-14 89.5t15.5 89.5t44.5 72t69.5 48t91.5 17.5q54 0 95.5 -17.5t69.5 -48t42 -72t14 -89.5zM402 205q0 42 -8.5 80t-25.5 67t-42.5 46t-59.5 17t-59.5 -14.5t-42.5 -40.5 t-25.5 -61.5t-8.5 -77.5t8.5 -80t25.5 -67.5t42.5 -46.5t59.5 -17t59.5 14.5t42.5 41t25.5 62t8.5 77.5zM224 488h-17l115 163h105z" />
<glyph unicode="&#xf4;" horiz-adv-x="532" d="M487 213q0 -48 -15.5 -89.5t-44.5 -72t-69.5 -48t-91.5 -17.5q-54 0 -95.5 17.5t-69.5 48t-42 72t-14 89.5t15.5 89.5t44.5 72t69.5 48t91.5 17.5q54 0 95.5 -17.5t69.5 -48t42 -72t14 -89.5zM402 205q0 42 -8.5 80t-25.5 67t-42.5 46t-59.5 17t-59.5 -14.5t-42.5 -40.5 t-25.5 -61.5t-8.5 -77.5t8.5 -80t25.5 -67.5t42.5 -46.5t59.5 -17t59.5 14.5t42.5 41t25.5 62t8.5 77.5zM299 653l107 -170h-17l-122 119l-123 -119h-17l107 170h65z" />
<glyph unicode="&#xf5;" horiz-adv-x="532" d="M487 213q0 -48 -15.5 -89.5t-44.5 -72t-69.5 -48t-91.5 -17.5q-54 0 -95.5 17.5t-69.5 48t-42 72t-14 89.5t15.5 89.5t44.5 72t69.5 48t91.5 17.5q54 0 95.5 -17.5t69.5 -48t42 -72t14 -89.5zM402 205q0 42 -8.5 80t-25.5 67t-42.5 46t-59.5 17t-59.5 -14.5t-42.5 -40.5 t-25.5 -61.5t-8.5 -77.5t8.5 -80t25.5 -67.5t42.5 -46.5t59.5 -17t59.5 14.5t42.5 41t25.5 62t8.5 77.5zM335 501h-4q-19 0 -38 8q-20 9 -38 21l-36 20q-14 9 -27 9h-3q-23 -2 -35.5 -17.5t-19.5 -40.5h-21q2 20 8 38.5t16.5 33.5t25.5 24.5t35 10.5h4q19 0 37 -8 q20 -10 39 -22l35 -20q17 -10 30 -9q45 3 55 58h21q-2 -19 -8 -38t-16 -33.5t-24.5 -24t-35.5 -10.5z" />
<glyph unicode="&#xf6;" horiz-adv-x="532" d="M487 213q0 -48 -15.5 -89.5t-44.5 -72t-69.5 -48t-91.5 -17.5q-54 0 -95.5 17.5t-69.5 48t-42 72t-14 89.5t15.5 89.5t44.5 72t69.5 48t91.5 17.5q54 0 95.5 -17.5t69.5 -48t42 -72t14 -89.5zM402 205q0 42 -8.5 80t-25.5 67t-42.5 46t-59.5 17t-59.5 -14.5t-42.5 -40.5 t-25.5 -61.5t-8.5 -77.5t8.5 -80t25.5 -67.5t42.5 -46.5t59.5 -17t59.5 14.5t42.5 41t25.5 62t8.5 77.5zM414 551q0 -20 -15 -36t-36 -16q-20 0 -35 16t-15 36t15 36t35 16q21 0 36 -16t15 -36zM219 550q0 -20 -15 -35.5t-35 -15.5q-21 0 -36 15.5t-15 35.5t15 36t36 16 q20 0 35 -16t15 -36z" />
<glyph unicode="&#xf8;" horiz-adv-x="532" d="M121 32q-38 32 -57 78.5t-19 102.5q0 48 15.5 89.5t44.5 72t69.5 48t91.5 17.5q36 0 66 -8t54 -22l39 56q0 1 3.5 -1t7 -4.5t6 -5t1.5 -3.5l-38 -54q41 -31 61.5 -78.5t20.5 -106.5q0 -48 -15.5 -89.5t-44.5 -72t-69.5 -48t-91.5 -17.5q-38 0 -69.5 8.5t-56.5 24.5 l-19 -27l-18 -26l-12 -16t-6 -8.5l-1 -1.5q-1 0 -4 1l-6.5 4.5t-6 5t-1.5 3.5zM358 370q-17 21 -39.5 33t-52.5 12q-34 0 -59.5 -14.5t-42.5 -40.5t-25.5 -61.5t-8.5 -77.5q0 -40 6 -75.5t20 -63.5zM371 350l-101 -145l-37 -53l-33 -46q-14 -20 -22 -33l-9 -13 q17 -23 40.5 -36.5t56.5 -13.5q34 0 59.5 14.5t42.5 41t25.5 62t8.5 77.5t-7.5 79t-23.5 66z" />
<glyph unicode="&#xf9;" horiz-adv-x="576" d="M399 0v100h-2q-10 -23 -26.5 -44t-37.5 -36.5t-46 -24.5t-54 -9q-63 0 -101 43t-38 125v141q0 38 -3 59.5t-10.5 32.5t-21 15t-34.5 7q-2 0 -2 8t2 8h141v-268q0 -54 25 -87t76 -33q26 0 49 9t40 26q18 18 29.5 41.5t11.5 52.5v129q0 38 -3 59.5t-10.5 32.5t-21 15 t-34.5 7q-2 0 -2 8t2 8h141v-297q0 -38 3 -59t11 -31.5t22 -14.5t35 -7q2 0 2 -8t-2 -8h-141zM113 651h105l115 -163h-17z" />
<glyph unicode="&#xfa;" horiz-adv-x="576" d="M399 0v100h-2q-10 -23 -26.5 -44t-37.5 -36.5t-46 -24.5t-54 -9q-63 0 -101 43t-38 125v141q0 38 -3 59.5t-10.5 32.5t-21 15t-34.5 7q-2 0 -2 8t2 8h141v-268q0 -54 25 -87t76 -33q26 0 49 9t40 26q18 18 29.5 41.5t11.5 52.5v129q0 38 -3 59.5t-10.5 32.5t-21 15 t-34.5 7q-2 0 -2 8t2 8h141v-297q0 -38 3 -59t11 -31.5t22 -14.5t35 -7q2 0 2 -8t-2 -8h-141zM236 488h-17l115 163h105z" />
<glyph unicode="&#xfb;" horiz-adv-x="576" d="M399 0v100h-2q-10 -23 -26.5 -44t-37.5 -36.5t-46 -24.5t-54 -9q-63 0 -101 43t-38 125v141q0 38 -3 59.5t-10.5 32.5t-21 15t-34.5 7q-2 0 -2 8t2 8h141v-268q0 -54 25 -87t76 -33q26 0 49 9t40 26q18 18 29.5 41.5t11.5 52.5v129q0 38 -3 59.5t-10.5 32.5t-21 15 t-34.5 7q-2 0 -2 8t2 8h141v-297q0 -38 3 -59t11 -31.5t22 -14.5t35 -7q2 0 2 -8t-2 -8h-141zM311 653l107 -170h-17l-122 119l-123 -119h-17l107 170h65z" />
<glyph unicode="&#xfc;" horiz-adv-x="576" d="M399 0v100h-2q-10 -23 -26.5 -44t-37.5 -36.5t-46 -24.5t-54 -9q-63 0 -101 43t-38 125v141q0 38 -3 59.5t-10.5 32.5t-21 15t-34.5 7q-2 0 -2 8t2 8h141v-268q0 -54 25 -87t76 -33q26 0 49 9t40 26q18 18 29.5 41.5t11.5 52.5v129q0 38 -3 59.5t-10.5 32.5t-21 15 t-34.5 7q-2 0 -2 8t2 8h141v-297q0 -38 3 -59t11 -31.5t22 -14.5t35 -7q2 0 2 -8t-2 -8h-141zM426 551q0 -20 -15 -36t-36 -16q-20 0 -35 16t-15 36t15 36t35 16q21 0 36 -16t15 -36zM231 550q0 -20 -15 -35.5t-35 -15.5q-21 0 -36 15.5t-15 35.5t15 36t36 16q20 0 35 -16 t15 -36z" />
<glyph unicode="&#xfd;" horiz-adv-x="463" d="M469 412q-23 -3 -31.5 -7.5t-15.5 -11.5q-6 -6 -12.5 -17t-14.5 -30l-19 -50l-28 -72l-137 -362q-16 -47 -32.5 -75.5t-34.5 -44.5t-37.5 -21.5t-41.5 -5.5q-13 0 -30 3t-20 6q-2 2 -0.5 11.5t5 20t8.5 18.5t10 8q2 0 13 -2t19 -2q42 0 67 19.5t42 63.5l38 98 q-10 34 -23 73l-27 77l-28 77l-26 69l-21 54q-8 23 -14.5 39t-12 26.5t-12.5 17.5q-8 8 -19.5 11.5t-41.5 8.5q-2 0 -2 8t2 8q22 -1 52.5 -2t55.5 -1t53 1t50 2q2 0 2 -8t-2 -8q-25 -3 -37.5 -8.5t-14.5 -18.5v-6q0 -12 5 -31q8 -24 23 -64l79 -216l59 156q26 67 39 105 t13 55q0 13 -10 18t-43 10q-2 0 -2 8t2 8l45 -2q23 -1 40 -1q16 0 31 1t37 2q2 0 2 -8t-2 -8zM159 488h-17l115 163h105z" />
<glyph unicode="&#xfe;" horiz-adv-x="523" d="M480 229q0 -54 -21.5 -98.5t-56.5 -76.5t-80 -50t-93 -18q-47 0 -83 11v-143q0 -38 3 -59.5t10.5 -32.5t21 -15t34.5 -7q2 0 2 -8t-2 -8q-22 1 -48.5 1.5t-51.5 0.5t-55 -0.5t-52 -1.5q-2 0 -2 8t2 8q21 3 34 7t20 15t9.5 32t2.5 60v747q0 39 -3 60t-11 31.5t-22 14 t-35 6.5q-2 0 -2 8t2 8h143v-351h1q23 21 59 39.5t74 18.5q43 0 79.5 -16t63.5 -44t42 -65.5t15 -81.5zM401 214q0 38 -10.5 70.5t-30 56t-48.5 36.5t-65 13q-28 0 -55.5 -8.5t-45.5 -22.5v-326q21 -8 47 -13t51 -5q37 0 66 15t49.5 41.5t31 63t10.5 79.5z" />
<glyph unicode="&#xff;" horiz-adv-x="463" d="M469 412q-23 -3 -31.5 -7.5t-15.5 -11.5q-6 -6 -12.5 -17t-14.5 -30l-19 -50l-28 -72l-137 -362q-16 -47 -32.5 -75.5t-34.5 -44.5t-37.5 -21.5t-41.5 -5.5q-13 0 -30 3t-20 6q-2 2 -0.5 11.5t5 20t8.5 18.5t10 8q2 0 13 -2t19 -2q42 0 67 19.5t42 63.5l38 98 q-10 34 -23 73l-27 77l-28 77l-26 69l-21 54q-8 23 -14.5 39t-12 26.5t-12.5 17.5q-8 8 -19.5 11.5t-41.5 8.5q-2 0 -2 8t2 8q22 -1 52.5 -2t55.5 -1t53 1t50 2q2 0 2 -8t-2 -8q-25 -3 -37.5 -8.5t-14.5 -18.5v-6q0 -12 5 -31q8 -24 23 -64l79 -216l59 156q26 67 39 105 t13 55q0 13 -10 18t-43 10q-2 0 -2 8t2 8l45 -2q23 -1 40 -1q16 0 31 1t37 2q2 0 2 -8t-2 -8zM399 551q0 -20 -15 -36t-36 -16q-20 0 -35 16t-15 36t15 36t35 16q21 0 36 -16t15 -36zM204 550q0 -20 -15 -35.5t-35 -15.5q-21 0 -36 15.5t-15 35.5t15 36t36 16q20 0 35 -16 t15 -36z" />
<glyph unicode="&#x152;" horiz-adv-x="918" d="M882 160q-1 -12 -3.5 -32t-5.5 -41t-5.5 -41t-4.5 -33q-2 -11 -5.5 -14t-19.5 -2q-35 2 -79 2.5t-95 0.5h-27q-30 1 -56 1q-59 0 -102 -3q-62 -5 -86 -5q-82 0 -145.5 25t-107 68.5t-66 101t-22.5 121.5q0 70 24.5 130t71 104.5t113.5 69.5t152 25q8 0 24.5 -0.5 t35.5 -0.5q20 0 39 -0.5t31 -0.5h140q22 0 55.5 1t81.5 3q7 0 7 -7q1 -16 2 -36t1.5 -38.5t1 -33t0.5 -19.5q0 -2 -6 -2.5t-6 0.5q-4 24 -11 43.5t-22 32.5t-41 20t-67 7h-78q-9 0 -11 -0.5t-2 -1.5v-269q5 -1 11 -1q5 0 12.5 0.5t16.5 1.5q36 1 61.5 2t42.5 2.5t27.5 4 t17.5 6.5q13 8 15.5 24t7.5 41q1 2 7 2q7 0 7 -2q0 -4 -0.5 -15t-1 -24.5t-0.5 -27.5v-24v-23q0 -13 0.5 -26.5t1.5 -25.5t2 -20q1 -3 -7.5 -3.5t-8.5 1.5q-3 19 -6 34.5t-13 25.5q-6 6 -16 10t-27.5 7t-44 4.5t-65.5 2.5l-40 1v-163q0 -28 0.5 -45.5t3 -28.5t6 -17.5 t9.5 -12.5q20 -20 96 -20h16q38 0 61.5 7t39.5 23t25.5 41.5t18.5 61.5q1 3 9.5 2.5t8.5 -2.5zM145 301q0 -66 19.5 -118.5t54.5 -89t82.5 -56t102.5 -19.5q26 0 55.5 3t49.5 8v483q0 42 -5.5 60t-10.5 23q-4 4 -14 7t-23 5.5t-28 3.5t-29 1q-67 0 -115 -23.5t-79 -64.5 t-45.5 -98t-14.5 -125z" />
<glyph unicode="&#x153;" horiz-adv-x="830" d="M442 73q-28 -40 -72 -63.5t-104 -23.5q-54 0 -95.5 17.5t-69.5 48t-42 72t-14 89.5t15.5 89.5t44.5 72t69.5 48t91.5 17.5q65 0 109.5 -24t70.5 -66q28 41 71 65.5t99 24.5q36 0 67 -11.5t55 -33t38.5 -51.5t17.5 -66v-27h-309q-1 -8 -1.5 -16.5t-0.5 -16.5 q0 -39 12 -72.5t32.5 -58t48.5 -38.5t59 -14q48 0 85.5 24t61.5 62q2 3 6 1.5t3 -4.5q-8 -27 -25.5 -51t-41.5 -42t-52.5 -28.5t-59.5 -10.5q-56 0 -99.5 23t-70.5 64zM706 276v21q0 30 -8 52t-21.5 36.5t-31 22t-36.5 7.5q-49 0 -80 -39t-41 -100h218zM402 205 q0 42 -8.5 80t-25.5 67t-42.5 46t-59.5 17t-59.5 -14.5t-42.5 -40.5t-25.5 -61.5t-8.5 -77.5t8.5 -80t25.5 -67.5t42.5 -46.5t59.5 -17t59.5 14.5t42.5 41t25.5 62t8.5 77.5z" />
<glyph unicode="&#x178;" horiz-adv-x="568" d="M582 622q-25 -2 -43 -12t-32 -25.5t-25 -35.5l-26 -44l-117 -212v-175q0 -36 2.5 -56.5t11.5 -30.5t27.5 -12.5t49.5 -4.5q2 0 2 -8t-2 -8q-7 0 -23 0.5t-34.5 1t-37.5 0.5h-30h-30h-35l-38 -2h-32q-2 0 -2 8t2 8q32 2 50 4.5t27 12.5t11 30.5t2 56.5v157l-150 257 q-16 27 -27.5 43.5t-22.5 26t-24.5 14t-33.5 6.5q-2 0 -2 8t2 8q8 0 20.5 -0.5t27.5 -1t30 -0.5h27q23 0 52 0.5t58 1.5q2 0 2 -8t-2 -8q-26 -2 -37 -7t-11 -16q0 -13 19 -46l134 -230l121 225q8 16 12.5 27t4.5 20q0 23 -48 27q-2 0 -2 8t2 8q15 -1 42 -1.5t50 -0.5 q16 0 32.5 0.5t45.5 1.5q2 0 2 -8t-2 -8zM448 762q0 -20 -15 -36t-36 -16q-20 0 -35 16t-15 36t15 36t35 16q21 0 36 -16t15 -36zM253 761q0 -20 -15 -35.5t-35 -15.5q-21 0 -36 15.5t-15 35.5t15 36t36 16q20 0 35 -16t15 -36z" />
<glyph unicode="&#x2c6;" horiz-adv-x="339" d="M202 653l107 -170h-17l-122 119l-123 -119h-17l107 170h65z" />
<glyph unicode="&#x2dc;" horiz-adv-x="339" d="M238 501h-4q-19 0 -38 8q-20 9 -38 21l-36 20q-14 9 -27 9h-3q-23 -2 -35.5 -17.5t-19.5 -40.5h-21q2 20 8 38.5t16.5 33.5t25.5 24.5t35 10.5h4q19 0 37 -8q20 -10 39 -22l35 -20q17 -10 30 -9q45 3 55 58h21q-2 -19 -8 -38t-16 -33.5t-24.5 -24t-35.5 -10.5z" />
<glyph unicode="&#x2000;" horiz-adv-x="432" />
<glyph unicode="&#x2001;" horiz-adv-x="864" />
<glyph unicode="&#x2002;" horiz-adv-x="432" />
<glyph unicode="&#x2003;" horiz-adv-x="864" />
<glyph unicode="&#x2004;" horiz-adv-x="288" />
<glyph unicode="&#x2005;" horiz-adv-x="216" />
<glyph unicode="&#x2006;" horiz-adv-x="144" />
<glyph unicode="&#x2007;" horiz-adv-x="144" />
<glyph unicode="&#x2008;" horiz-adv-x="108" />
<glyph unicode="&#x2009;" horiz-adv-x="172" />
<glyph unicode="&#x200a;" horiz-adv-x="48" />
<glyph unicode="&#x2010;" horiz-adv-x="291" d="M266 275q1 0 1.5 -4t0.5 -9t-0.5 -9t-1.5 -4h-241q-1 0 -1 4v9v9q0 4 1 4h241z" />
<glyph unicode="&#x2011;" horiz-adv-x="291" d="M266 275q1 0 1.5 -4t0.5 -9t-0.5 -9t-1.5 -4h-241q-1 0 -1 4v9v9q0 4 1 4h241z" />
<glyph unicode="&#x2013;" horiz-adv-x="500" d="M475 275q1 0 1.5 -4t0.5 -9t-0.5 -9t-1.5 -4h-450q-1 0 -1 4v9v9q0 4 1 4h450z" />
<glyph unicode="&#x2014;" horiz-adv-x="1000" d="M975 275q1 0 1.5 -4t0.5 -9t-0.5 -9t-1.5 -4h-950q-1 0 -1 4v9v9q0 4 1 4h950z" />
<glyph unicode="&#x2018;" horiz-adv-x="181" d="M110 405q-21 0 -36.5 8.5t-26 22t-16 29.5t-5.5 31q0 24 8.5 48t23.5 45.5t35.5 40.5t44.5 33h1q2 0 6 -5q5 -7 2 -9q-38 -29 -54 -54.5t-16 -54.5q0 -17 9 -29t30 -17q26 -5 33 -19t7 -27q0 -18 -12 -30.5t-34 -12.5z" />
<glyph unicode="&#x2019;" horiz-adv-x="181" d="M71 651q21 0 37 -8.5t26.5 -22t15.5 -29.5t5 -31q0 -48 -32 -93t-80 -74h-1q-2 0 -6 5q-5 7 -2 9q38 29 54 54.5t16 54.5q0 17 -9 29t-30 17q-26 5 -33 19t-7 27q0 18 12 30.5t34 12.5z" />
<glyph unicode="&#x201a;" horiz-adv-x="181" d="M71 91q21 0 37 -8.5t26.5 -22t15.5 -29.5t5 -31q0 -48 -32 -93t-80 -74h-1q-2 0 -6 5q-5 7 -2 9q38 29 54 54.5t16 54.5q0 17 -9 29t-30 17q-26 5 -33 19t-7 27q0 18 12 30.5t34 12.5z" />
<glyph unicode="&#x201c;" horiz-adv-x="366" d="M110 405q-21 0 -36.5 8.5t-26 22t-16 29.5t-5.5 31q0 24 8.5 48t23.5 45.5t35.5 40.5t44.5 33h1q2 0 6 -5q5 -7 2 -9q-38 -29 -54 -54.5t-16 -54.5q0 -17 9 -29t30 -17q26 -5 33 -19t7 -27q0 -18 -12 -30.5t-34 -12.5zM295 405q-21 0 -36.5 8.5t-26 22t-16 29.5t-5.5 31 q0 24 8.5 48t23.5 45.5t35.5 40.5t44.5 33h1q2 0 6 -5q5 -7 2 -9q-38 -29 -54 -54.5t-16 -54.5q0 -17 9 -29t30 -17q26 -5 33 -19t7 -27q0 -18 -12 -30.5t-34 -12.5z" />
<glyph unicode="&#x201d;" horiz-adv-x="366" d="M71 651q21 0 37 -8.5t26.5 -22t15.5 -29.5t5 -31q0 -48 -32 -93t-80 -74h-1q-2 0 -6 5q-5 7 -2 9q38 29 54 54.5t16 54.5q0 17 -9 29t-30 17q-26 5 -33 19t-7 27q0 18 12 30.5t34 12.5zM256 651q21 0 37 -8.5t26.5 -22t15.5 -29.5t5 -31q0 -48 -32 -93t-80 -74h-1 q-2 0 -6 5q-5 7 -2 9q38 29 54 54.5t16 54.5q0 17 -9 29t-30 17q-26 5 -33 19t-7 27q0 18 12 30.5t34 12.5z" />
<glyph unicode="&#x201e;" horiz-adv-x="366" d="M71 91q21 0 37 -8.5t26.5 -22t15.5 -29.5t5 -31q0 -48 -32 -93t-80 -74h-1q-2 0 -6 5q-5 7 -2 9q38 29 54 54.5t16 54.5q0 17 -9 29t-30 17q-26 5 -33 19t-7 27q0 18 12 30.5t34 12.5zM256 91q21 0 37 -8.5t26.5 -22t15.5 -29.5t5 -31q0 -48 -32 -93t-80 -74h-1 q-2 0 -6 5q-5 7 -2 9q38 29 54 54.5t16 54.5q0 17 -9 29t-30 17q-26 5 -33 19t-7 27q0 18 12 30.5t34 12.5z" />
<glyph unicode="&#x2022;" horiz-adv-x="361" d="M296 202q0 -26 -9 -48t-24.5 -38t-37 -25t-46.5 -9q-49 0 -81.5 33.5t-32.5 85.5t33 85t83 33q49 0 82 -32.5t33 -84.5z" />
<glyph unicode="&#x2026;" horiz-adv-x="582" d="M152 35q0 -20 -14.5 -36.5t-40.5 -16.5q-27 0 -41 16.5t-14 36.5q0 22 14 39t41 17q26 0 40.5 -17t14.5 -39zM346 35q0 -20 -14.5 -36.5t-40.5 -16.5q-27 0 -41 16.5t-14 36.5q0 22 14 39t41 17q26 0 40.5 -17t14.5 -39zM540 35q0 -20 -14.5 -36.5t-40.5 -16.5 q-27 0 -41 16.5t-14 36.5q0 22 14 39t41 17q26 0 40.5 -17t14.5 -39z" />
<glyph unicode="&#x202f;" horiz-adv-x="172" />
<glyph unicode="&#x2039;" horiz-adv-x="264" d="M243 57l1 -1q0 -3 -5 -8t-7 -5l-2 2q-14 13 -46 39l-52 42l-48 38l-39 30q-5 3 -5 8t5 8q17 12 39 30l48 38l50 42l50 41q2 0 7 -5t5 -8q0 -1 -1 -1l-120 -145z" />
<glyph unicode="&#x203a;" horiz-adv-x="264" d="M31 347l-1 1q0 3 5 8t7 5l50 -41l50 -42l48 -38q22 -18 39 -30q5 -3 5 -8t-5 -8l-39 -30l-48 -38l-52 -42q-32 -26 -46 -39l-2 -2q-2 0 -7 5q-6 7 -4 9l120 145z" />
<glyph unicode="&#x205f;" horiz-adv-x="216" />
<glyph unicode="&#x2122;" horiz-adv-x="693" d="M100 359q-2 0 -2 7q0 8 2 8q22 2 28 8t6 31v203q-21 0 -35 -3t-23 -10.5t-15.5 -20.5t-12.5 -32q-1 -2 -9 -1.5t-8 1.5q1 6 2.5 17.5t3.5 24.5l4 25q2 13 3 23q17 -2 47.5 -3t65.5 -1q39 0 68 1t49 3q0 -9 1 -22l2 -25q1 -13 2.5 -24t2.5 -19q0 -2 -8 -2t-9 2 q-6 20 -12 33t-15 20.5t-23 10t-35 2.5v-203q0 -24 5.5 -30t29.5 -9q2 0 2 -8q0 -7 -2 -7h-115zM537 359q-2 0 -2 8t2 8q20 2 27 12q5 8 5 27v12l-7 166l-36 -96l-49 -137q-2 -3 -8 -3h-3q-9 1 -10 3l-17 49l-21 60l-21 64q-11 32 -22 60l-6 -169v-10q0 -21 3 -27 q5 -9 28 -11q2 0 2 -8t-2 -8h-90q-3 0 -3 8t3 8q13 1 20 3.5t10.5 10t5 21t2.5 37.5l4 136v6q0 22 -7 26q-8 5 -29 8q-2 0 -2 8t2 8q23 -2 47 -2h32q11 0 14 -8l15 -43l18 -56l19 -58l16 -49q11 34 29.5 84.5t34.5 100.5l7 22q3 9 11 9q7 0 32.5 -1t47.5 -1q2 0 2.5 -7.5 t-1.5 -7.5q-19 -3 -25 -10t-5 -29l5 -157q0 -15 1.5 -24.5t5 -14.5t10 -7.5t17.5 -4.5q2 -1 2 -9q0 -7 -2 -7h-112z" />
</font>
</defs>
</svg>
